<?xml version="1.0" encoding="utf-8"?>
<!-- Generator: Adobe Illustrator 27.5.0, SVG Export Plug-In . SVG Version: 6.00 Build 0)  -->
<svg version="1.1" id="Layer_1" xmlns="http://www.w3.org/2000/svg" xmlns:xlink="http://www.w3.org/1999/xlink" x="0px" y="0px"
	 viewBox="0 0 120 120" style="enable-background:new 0 0 120 120;" xml:space="preserve">
<rect x="0" y="0" style="fill:#FFFFFF;" width="120" height="120"/>
<path style="fill-rule:evenodd;clip-rule:evenodd;fill:#FFFFFF;" d="M14.496,70.212c-0.171,0.139-0.503,0.241-0.546,0.577
	c-0.042,0.33,0.164,0.677,0.243,0.972C14.472,71.423,14.346,70.68,14.496,70.212z"/>
<g>
	<linearGradient id="SVGID_1_" gradientUnits="userSpaceOnUse" x1="13.8494" y1="156.0018" x2="13.8494" y2="96.0435">
		<stop  offset="0" style="stop-color:#FFFFFF"/>
		<stop  offset="0.6046" style="stop-color:#FFFFFF"/>
		<stop  offset="0.7088" style="stop-color:#FFFFFF"/>
		<stop  offset="0.7642" style="stop-color:#E6E6E6"/>
		<stop  offset="0.8821" style="stop-color:#A5A5A5"/>
		<stop  offset="1" style="stop-color:#5F5F5F"/>
	</linearGradient>
	<path style="fill:url(#SVGID_1_);" d="M16.557,117.542c-0.047-1.032-0.223-2.015-0.347-2.9c-0.02-0.503,0.023-0.943,0.063-1.387
		c-0.049-0.666-0.19-1.365-0.189-2.08c0.001-0.99,0.047-2,0-3.026c0.118-0.563,0.363-1.187,0.41-1.892
		c0.053-0.78-0.05-1.611,0.032-2.428c0.027-0.142,0.094-0.242,0.126-0.378c0.021-0.273,0.07-0.651,0-0.914
		c-0.202-0.239-0.586-0.297-0.882-0.441c0.142-0.384,0.067-0.881,0.094-1.355c0.031-0.547,0.224-1.046,0.284-1.514
		c0.017-0.227-0.04-0.38-0.063-0.566c-0.08-0.078-0.191-0.124-0.252-0.221c-0.877-0.107-2.007-0.07-2.932-0.032
		c-0.149,0.061-0.236,0.184-0.378,0.253c0.001,0.179-0.08,0.276-0.063,0.473c0.043,0.208,0.249,0.255,0.315,0.442
		c0.201,0.534,0.442,1.028,0.567,1.639c0.051,0.149,0.186,0.214,0.189,0.41c-0.64-0.113-1.379-0.367-2.112-0.189
		c-0.244,0.26-0.332,0.676-0.41,1.104c0.124,0.434,0.263,0.851,0.441,1.229c0.016,0.204,0.047,0.394,0.095,0.567
		c-0.133,0.486-0.208,1.032-0.347,1.513c-0.021,0.252,0.028,0.435,0.032,0.662c0.388,0.995,0.378,2.189,0.378,3.531
		c0,0.472,0.021,0.974,0,1.449c-0.015,0.331-0.081,0.653-0.095,0.978c-0.049,1.12-0.011,2.279-0.063,3.342
		c-0.077,0.385-0.148,0.777-0.189,1.198c0.05,0.37,0.027,0.813,0.032,1.229c-0.047,0.571-0.142,1.195-0.157,1.765h5.554
		c-0.056-0.436-0.112-0.885-0.133-1.354C16.541,118.286,16.574,117.908,16.557,117.542z"/>
	
		<linearGradient id="SVGID_00000105423246180326820200000007020392679846665378_" gradientUnits="userSpaceOnUse" x1="19.4885" y1="156.0028" x2="19.4885" y2="96.043">
		<stop  offset="0" style="stop-color:#FFFFFF"/>
		<stop  offset="0.6046" style="stop-color:#FFFFFF"/>
		<stop  offset="0.7088" style="stop-color:#FFFFFF"/>
		<stop  offset="0.7642" style="stop-color:#E6E6E6"/>
		<stop  offset="0.8821" style="stop-color:#A5A5A5"/>
		<stop  offset="1" style="stop-color:#5F5F5F"/>
	</linearGradient>
	<path style="fill:url(#SVGID_00000105423246180326820200000007020392679846665378_);" d="M22.294,116.092
		c-0.056-0.822-0.158-1.733-0.157-2.616c0-0.622,0.028-1.243,0-1.892c-0.013-0.291,0.014-0.583,0-0.883
		c-0.019-0.42-0.076-0.832-0.095-1.261c-0.026-0.602,0-1.231,0-1.828c0-1.509-0.033-2.806,0.347-3.909
		c-0.011-0.252,0.056-0.427,0.032-0.693c-0.136-0.568-0.286-1.122-0.378-1.733c-0.005-0.279,0.078-0.469,0.095-0.726
		c0.229-0.359,0.355-0.822,0.504-1.261c-0.046-0.658-0.254-1.153-0.599-1.514c-0.371-0.169-0.825-0.252-1.293-0.315
		c-0.049-0.214-0.081-0.444-0.126-0.662c-0.064-0.125-0.217-0.162-0.284-0.284c-0.233-0.092-0.486-0.165-0.63-0.347
		c-0.237-0.026-0.443-0.082-0.662-0.126c-0.417,0.067-0.981-0.014-1.292,0.158c-0.095,0.072-0.139,0.197-0.252,0.252
		c-0.261,0.106-0.454,0.281-0.662,0.441c-0.064,0.293-0.119,0.595-0.095,0.978c0.078,0.216,0.183,0.405,0.347,0.535
		c-0.333,0.237-0.728,0.592-0.756,1.167c-0.004,0.085,0.025,0.182,0.031,0.283c0.029,0.441,0.008,0.734,0.158,1.009
		c0.114,1.126,0.243,2.236,0.347,3.373c0.19,0.759,0.427,1.633,0.347,2.616c-0.07,0.854,0.017,1.836,0.064,2.68
		c-0.053,0.278-0.018,0.584-0.032,0.883c-0.024,0.511-0.136,1.013-0.158,1.513c-0.026,0.601,0.086,1.182,0.063,1.829
		c-0.06,0.81-0.15,1.691-0.189,2.585c-0.03,0.694,0.031,1.402,0,2.08c-0.016,0.346-0.064,0.682-0.095,1.009
		c-0.018,0.191-0.034,0.381-0.055,0.566h5.535c0.001-0.244,0.003-0.494,0.005-0.756C22.208,118.275,22.146,117.105,22.294,116.092z"
		/>
</g>
<g>
	
		<linearGradient id="SVGID_00000096050661904587574400000000724826424761275310_" gradientUnits="userSpaceOnUse" x1="34.312" y1="164.011" x2="34.312" y2="96.0082">
		<stop  offset="0" style="stop-color:#FFFFFF"/>
		<stop  offset="0.6046" style="stop-color:#FFFFFF"/>
		<stop  offset="0.7088" style="stop-color:#FFFFFF"/>
		<stop  offset="0.7642" style="stop-color:#E6E6E6"/>
		<stop  offset="0.8821" style="stop-color:#A5A5A5"/>
		<stop  offset="1" style="stop-color:#5F5F5F"/>
	</linearGradient>
	<path style="fill:url(#SVGID_00000096050661904587574400000000724826424761275310_);" d="M40.129,114.127
		c-0.197-1.228-0.268-2.58-0.653-3.619c-0.087-0.052-0.188-0.089-0.178-0.237c-0.33-0.303-0.685-0.581-1.127-0.771
		c-0.582-1.316-1.047-2.749-1.483-4.211c0.061-0.475,0.328-0.74,0.475-1.128c0.18-0.862,0.243-1.688,0.416-2.491
		c0.118-0.552,0.268-1.299,0.237-2.136c-0.05-0.147-0.078-0.317-0.06-0.533c-0.194-0.359-0.537-0.57-0.771-0.89
		c-0.614-0.274-1.281-0.685-2.195-0.475c-0.133-0.044,0.131-0.179,0.119-0.297c0.115-0.063,0.083-0.273,0.178-0.355
		c-0.068-0.07-0.067-0.21-0.059-0.356c-0.081-0.019-0.049-0.148-0.06-0.237c-0.144-0.094-0.262-0.212-0.356-0.355
		c-1.365-0.064-2.877-0.018-4.093,0.237c-0.093,0.144-0.212,0.262-0.355,0.355c-0.137,1.304,0.432,1.901,0.711,2.788
		c0.008,0.344-0.112,0.561-0.119,0.89c0.03,0.327,0.183,0.529,0.237,0.831c0,0.157,0,0.316,0,0.475
		c-0.033,0.322-0.093,0.618-0.178,0.89c-0.112,2.596-0.638,4.779-1.008,7.118c-0.301,0.214-0.82,0.209-1.068,0.475
		c-0.256,0.64-0.057,1.411,0,2.136c0.059,0.753,0.076,1.507,0.178,2.194c-0.012,1.987-0.2,3.8-0.422,5.577h11.628
		C40.027,118.099,39.995,116.159,40.129,114.127z M33.485,100.779c0.017-0.017,0.09,0.028,0.059,0.06
		C33.528,100.855,33.454,100.811,33.485,100.779z M34.315,109.618c-0.003,0.036-0.009,0.07-0.06,0.06
		c-0.08-0.019-0.113-0.085-0.237-0.06c-0.123-0.428-0.039-0.839-0.059-1.246c-0.072-1.403-0.499-2.648-0.593-4.033
		c-0.05-0.731,0.023-1.481,0-2.313c0.129-0.286,0.076-0.755,0.237-1.009c0.249,1.116,0.3,2.429,0.712,3.382
		c-0.04,0.236-0.15,0.403-0.119,0.711c0.05,0.326,0.246,0.506,0.296,0.831C34.613,107.223,34.534,108.514,34.315,109.618z"/>
</g>
<g>
	
		<linearGradient id="SVGID_00000125599628074107810300000012474810901972071099_" gradientUnits="userSpaceOnUse" x1="49.3996" y1="181.9886" x2="49.3996" y2="94.8158">
		<stop  offset="0" style="stop-color:#FFFFFF"/>
		<stop  offset="0.6046" style="stop-color:#FFFFFF"/>
		<stop  offset="0.7088" style="stop-color:#FFFFFF"/>
		<stop  offset="0.7642" style="stop-color:#E6E6E6"/>
		<stop  offset="0.8821" style="stop-color:#A5A5A5"/>
		<stop  offset="1" style="stop-color:#5F5F5F"/>
	</linearGradient>
	<path style="fill:url(#SVGID_00000125599628074107810300000012474810901972071099_);" d="M53.478,118.312c0-0.323,0-0.646,0-0.969
		c0.04-0.231,0.275-0.269,0.356-0.458c0.396-0.297,0.45-0.926,0.357-1.58c0.054-0.237,0.197-0.393,0.204-0.663
		c0.006-0.236-0.139-0.428-0.153-0.662c0.016-0.321-0.008-0.604-0.051-0.866c-0.156-0.065-0.137-0.306-0.357-0.307
		c-0.057-0.163-0.347-0.095-0.458-0.204c-0.21-0.299-0.489-0.53-0.663-0.866c0.449-0.842,0.365-2.217,0.56-3.313
		c-0.117-0.838,0.042-1.821,0.102-2.65c0.082-0.789,0.154-1.779,0.102-2.65c-0.045-0.738-0.076-1.56-0.561-1.987
		c-1.609-0.623-3.353,0.099-4.179,1.02c-0.214,0.55-0.368,1.161-0.459,1.835c0.104,1.408,0.585,2.438,0.765,3.771
		c-0.078,0.668-0.086,1.536,0.051,2.141c-0.298-0.044-0.417,0.093-0.612,0.152c-0.247,0.449-0.661,0.732-1.07,1.02
		c-0.302,0.395-0.621,0.772-0.917,1.172c-0.058,0.231-0.044,0.533-0.102,0.765c-0.218,0.224-0.436,0.447-0.663,0.663
		c-0.15,0.614-0.506,1.022-0.663,1.631c-0.201,0.563-0.555,0.975-0.663,1.631c-0.016,0.321,0.202,0.409,0.204,0.713
		c-0.02,0.564,0.004,0.91,0,1.529c0.068,0.271,0.265,0.414,0.306,0.714c0,0.036-0.001,0.072-0.002,0.108h8.411
		c0-0.325,0-0.65,0-0.975C53.371,118.782,53.439,118.563,53.478,118.312z"/>
	
		<linearGradient id="SVGID_00000150060660542507718930000017230768023287312774_" gradientUnits="userSpaceOnUse" x1="59.0069" y1="181.9872" x2="59.0069" y2="94.8164">
		<stop  offset="0" style="stop-color:#FFFFFF"/>
		<stop  offset="0.6046" style="stop-color:#FFFFFF"/>
		<stop  offset="0.7088" style="stop-color:#FFFFFF"/>
		<stop  offset="0.7642" style="stop-color:#E6E6E6"/>
		<stop  offset="0.8821" style="stop-color:#A5A5A5"/>
		<stop  offset="1" style="stop-color:#5F5F5F"/>
	</linearGradient>
	<path style="fill:url(#SVGID_00000150060660542507718930000017230768023287312774_);" d="M64.436,119.637
		c-0.017-0.715,0.042-1.503-0.052-2.141c-0.127-0.28-0.309-0.507-0.407-0.815c0-0.815,0-1.631,0-2.446
		c-0.093-0.265-0.229-0.484-0.306-0.765c-0.035-0.934,0.088-2.025-0.103-2.804c-0.2-0.309-0.384-0.635-0.611-0.917
		c-0.177-0.333-0.477-0.543-0.611-0.917c-0.288-0.97-0.19-2.325-0.204-3.568c0.122-0.336,0.182-0.735,0.153-1.223
		c-0.06-0.009-0.056-0.081-0.052-0.153c-0.044-0.142-0.122-0.252-0.152-0.407c-0.107-0.098-0.269-0.14-0.255-0.357
		c0.004-0.315,0.104-0.581,0-0.866c-0.204-0.339-0.559-0.529-1.173-0.458c-0.128-0.041-0.129-0.21-0.204-0.307
		c-0.023-0.147-0.219-0.12-0.254-0.255c-0.209-0.012-0.269-0.173-0.459-0.203c-0.292-0.133-0.732-0.118-1.07-0.204
		c0.164-0.72,0.118-1.649,0.255-2.396c0.04-0.328-0.075-0.502-0.102-0.765c0.233-0.577,0.804-0.991,0.612-1.834
		c-0.278-0.232-0.59-0.431-1.07-0.459c-0.242-0.014-0.287-0.223-0.561-0.204c-0.161-0.025-0.199,0.111-0.306,0
		c-0.131-0.005-0.053-0.219-0.254-0.153c-0.217-0.029-0.337,0.037-0.51,0.051c-0.054-0.133-0.207-0.166-0.408-0.152
		c-0.242-0.021-0.351,0.091-0.612,0.051c-0.239-0.016-0.355-0.154-0.611-0.152c-0.329,0.181-0.885,0.135-1.223,0.306
		c-0.149,0.395-0.123,0.964-0.153,1.478c0.039,0.199,0.233,0.243,0.255,0.459c0.242,1.219,0.229,2.692,0.459,3.924
		c0.012,0.183-0.288,0.053-0.255,0.255c0.101,0.121,0.176,0.266,0.255,0.408c0.206,0.031,0.119,0.356,0.255,0.459
		c-0.354,0.393-0.755,0.74-0.969,1.273c-0.197,0.466-0.152,1.174-0.153,1.835c0.019,0.219,0.137,0.339,0.153,0.561
		c0.045,0.822,0.198,1.535,0.357,2.243c0.131,0.735,0.255,1.478,0.306,2.293c0.106,0.302,0.166,0.649,0.255,0.969
		c-0.005,1.731-0.065,3.207,0.306,4.536c-0.087,1.292,0.247,2.165,0.153,3.465c-0.044,0.211-0.137,0.373-0.153,0.612
		c0,0.036,0,0.072,0,0.108h9.383C64.388,119.896,64.45,119.805,64.436,119.637z"/>
</g>
<g>
	
		<linearGradient id="SVGID_00000180335119725307081150000000532013363106888590_" gradientUnits="userSpaceOnUse" x1="82.5576" y1="178.9224" x2="82.5576" y2="95.652">
		<stop  offset="0" style="stop-color:#FFFFFF"/>
		<stop  offset="0.6046" style="stop-color:#FFFFFF"/>
		<stop  offset="0.7088" style="stop-color:#FFFFFF"/>
		<stop  offset="0.7642" style="stop-color:#E6E6E6"/>
		<stop  offset="0.8821" style="stop-color:#A5A5A5"/>
		<stop  offset="1" style="stop-color:#5F5F5F"/>
	</linearGradient>
	<path style="fill:url(#SVGID_00000180335119725307081150000000532013363106888590_);" d="M85.745,114.339
		c-0.053-0.519-0.21-1.042-0.094-1.592c-0.119-0.517-0.208-1.108-0.141-1.685c-0.113-0.457-0.262-1.097-0.14-1.638
		c-0.13-0.339-0.176-0.761-0.188-1.217c-0.211-0.086-0.468-0.126-0.749-0.141c-0.067-0.102,0.125-0.341,0.094-0.562
		c-0.099-0.494-0.107-1.078-0.094-1.685c0.093-0.5,0.215-0.972,0.281-1.498c-0.029-0.407-0.267-0.607-0.328-0.982
		c-0.081-0.34-0.284-0.559-0.608-0.655c-0.299,0.028-0.522,0.134-0.608,0.374c-0.025-0.24-0.415-0.398-0.608-0.187
		c0.011-0.302,0.156-0.469,0.141-0.796c-0.012-0.3-0.135-0.488-0.233-0.702c0.291-0.69,0.469-1.496,0.655-2.293
		c0.113-0.37,0.188-0.778,0.374-1.076c0.133-0.285,0.411-0.667,0.374-1.077c-0.023-0.258-0.211-0.457-0.327-0.654
		c-0.063-0.084-0.271-0.145-0.375-0.047c-0.079-0.092-0.144-0.2-0.28-0.234c-0.148-0.007-0.282-0.001-0.328,0.094
		c-0.057-0.13-0.197-0.177-0.327-0.233c-0.162-0.038-0.197,0.052-0.281,0.093c-0.127-0.061-0.166-0.208-0.374-0.187
		c-0.198-0.012-0.277,0.097-0.328,0.233c-0.224-0.196-0.445-0.396-0.936-0.327c-0.03,0.063-0.1,0.087-0.188,0.094
		c-0.134,0.177-0.278,0.345-0.28,0.655c-0.092,0.205-0.171,0.422-0.141,0.748c0.158,0.466,0.282,0.966,0.421,1.451
		c0.018,0.962,0.183,1.821,0.188,2.667c-0.063,0.312-0.233,0.515-0.327,0.796c-0.018,0.222,0.015,0.391,0.047,0.562
		c0.079,0.279,0.209,0.509,0.327,0.749c0.285,1.353,0.048,3.228,0.187,4.727c-0.276,0.13-0.811,0.001-1.029,0.187
		c-0.192-0.021,0.019,0.101-0.047,0.234c0,0.109,0,0.219,0,0.328c0.167,1.455,0.206,3.038,0.374,4.492
		c-0.137,0.347-0.299,0.669-0.281,1.17c-0.024,0.072-0.049,0.003-0.046-0.047c-0.021-0.067-0.042,0.005-0.094,0
		c0.011,0.229-0.083,0.354-0.047,0.608c-0.026,0.224,0.16,0.195,0.094,0.515c-0.053,0.258-0.115-0.056-0.188,0.141
		c0.016,0.188-0.083,0.26-0.047,0.468c-0.06,0.232,0.113,0.23,0.094,0.422c0.032,0.266-0.197,0.271-0.188,0.515
		c0.003,0.216-0.021,0.457,0.047,0.608c-0.012,0.223-0.146,0.322-0.188,0.515c-0.025,0.306,0.029,0.532,0.047,0.796
		c-0.031,0.323-0.075,0.633-0.129,0.935h7.268c-0.25-1.661-0.518-3.305-0.54-5.193C85.609,114.577,85.806,114.587,85.745,114.339z
		 M79.381,116.444c-0.014,0.013-0.071-0.023-0.047-0.047C79.347,116.385,79.405,116.42,79.381,116.444z M79.428,116.023
		c-0.014,0.013-0.071-0.022-0.047-0.047C79.394,115.963,79.451,115.999,79.428,116.023z M79.521,115.134
		c-0.014,0.013-0.071-0.022-0.047-0.047C79.487,115.074,79.545,115.109,79.521,115.134z M83.125,103.2
		c-0.003-0.05,0.021-0.118,0.046-0.047C83.173,103.203,83.149,103.272,83.125,103.2z"/>
</g>
<g>
	
		<linearGradient id="SVGID_00000008845671256304272010000002948361005190890938_" gradientUnits="userSpaceOnUse" x1="100.4204" y1="155.0523" x2="100.4204" y2="95.8774">
		<stop  offset="0" style="stop-color:#FFFFFF"/>
		<stop  offset="0.6046" style="stop-color:#FFFFFF"/>
		<stop  offset="0.7088" style="stop-color:#FFFFFF"/>
		<stop  offset="0.7642" style="stop-color:#E6E6E6"/>
		<stop  offset="0.8821" style="stop-color:#A5A5A5"/>
		<stop  offset="1" style="stop-color:#5F5F5F"/>
	</linearGradient>
	<path style="fill:url(#SVGID_00000008845671256304272010000002948361005190890938_);" d="M107.303,119.62
		c-0.882-0.25-1.884-0.383-2.859-0.54c-0.514-2.075-0.824-4.354-1.005-6.763c0.233-0.926,0.313-2.005,0.387-3.091
		c-0.049-1.392-0.363-2.657-0.579-3.941c-0.109-0.649-0.248-1.301-0.31-1.971c-0.031-0.339-0.025-0.699-0.077-1.043
		c-0.048-0.315-0.188-0.632-0.193-0.966c0.039-0.283,0.131-0.514,0.193-0.773c0.038-0.24-0.016-0.525-0.077-0.772
		c0.166-0.349,0.275-0.754,0.387-1.159c-0.042-0.415,0.057-0.689,0.115-1.004c-0.031-0.394-0.055-0.796-0.154-1.121
		c-0.377-0.303-0.979-0.374-1.584-0.464c-0.589-0.087-1.261-0.207-1.816-0.077c-0.012,0.115-0.086,0.194-0.077,0.31
		c0.009,0.11,0.101,0.162,0.116,0.271c-0.095,0.099-0.184,0.202-0.155,0.425c0,0.528,0.23,0.826,0.309,1.274
		c0.088,0.17,0.262,0.254,0.348,0.426c0.156,0.526,0.371,0.994,0.348,1.7c-0.034,0.224-0.103,0.412-0.116,0.656
		c-0.008,0.361,0.159,0.692,0.193,1.082c0.037,0.413-0.027,0.875,0,1.353c-0.09,1.623-0.614,2.811-0.502,4.637
		c0.063,0.735,0.213,1.385,0.271,2.125c0,0.398-0.083,0.7-0.039,1.044c-0.128,0.348-0.217,0.735-0.309,1.12
		c-0.099,0.878,0.11,1.737,0.154,2.628c0.018,0.354-0.023,0.717-0.038,1.081c-0.012,0.274,0.014,0.539,0,0.812
		c-0.012,0.228-0.067,0.466-0.077,0.695c-0.017,0.363,0.044,0.725-0.039,1.082c-0.084-0.07-0.316,0.008-0.387-0.077
		c-0.098-0.958-0.154-1.958-0.271-2.898c-0.073-0.983-0.024-2.088-0.038-3.13c-0.039-0.425-0.202-0.726-0.232-1.159
		c0.333-0.686,0.636-1.4,0.58-2.474c-0.182-0.733-0.314-1.653-0.193-2.588c0.085-0.187,0.205-0.336,0.231-0.58
		c0.033-0.252-0.079-0.358-0.077-0.579c0.068-0.357,0.028-0.822,0.039-1.237c0.056-0.291,0.094-0.601,0.154-0.889
		c0.022-0.146,0.094-0.241,0.077-0.425c0.039-0.142,0.136-0.225,0.155-0.387c0.03-0.342,0.112-0.633,0.115-1.004
		c0.063-0.224-0.205-0.26-0.115-0.387c0.075-0.375-0.009-0.813-0.233-1.005c-0.934-0.103-1.659,0.32-2.357,0.58
		c-0.193,0.18-0.389,0.358-0.54,0.579c-0.07,0.459-0.091,0.966-0.078,1.507c0.23,0.98,0.303,2.119,0.464,3.169
		c0.044,0.188,0.174,0.289,0.193,0.502c-0.115,0.297-0.238,0.586-0.31,0.928c-0.428,0.847-0.895,1.655-1.236,2.589
		c-0.155,1.596-0.105,3.397-0.115,5.139c-0.197,1.233-0.23,2.63-0.503,3.787c-0.535,0.069-1.147,0.063-1.623,0.193
		c-0.1,0.062,0.017,0.34-0.038,0.348c-0.242,0.067-0.574,0.044-0.734,0.192c0.063,0.214,0.122,0.432,0.179,0.65h14.572
		c-0.048-0.01-0.097-0.021-0.146-0.031C107.503,119.885,107.466,119.689,107.303,119.62z M99.961,102.619
		c0.021,0.021-0.027,0.049-0.038,0.039C99.902,102.638,99.951,102.608,99.961,102.619z M99.923,102.773
		c0.02,0.021-0.028,0.05-0.039,0.039C99.864,102.793,99.912,102.763,99.923,102.773z"/>
</g>
<path style="fill-rule:evenodd;clip-rule:evenodd;fill:#FFFFFF;" d="M21.601,43.279c-0.061,0.024,0.054,0.125,0.06,0.182
	c0.102-0.027,0.027-0.068,0-0.122C21.796,43.394,21.646,43.304,21.601,43.279z"/>
<g>
	<path d="M111.84,66.633c-0.501-0.877-1.089-1.667-1.816-2.318c-0.061-0.171-0.192-0.271-0.271-0.425
		c-0.059-0.16-0.225-0.214-0.271-0.387c-0.223-0.228-0.357-0.543-0.541-0.812c-0.96-1.706-1.793-3.539-3.091-4.907
		c0.059-0.198,0.061-0.455,0.116-0.657c-0.008-1.269,0.013-2.444,0-3.632c0.032-0.045,0.051-0.104,0.038-0.193
		c0.243-0.62,0.608-1.118,0.618-1.971c0-0.502-0.213-0.792-0.309-1.198c-0.193-0.192-0.348-0.425-0.541-0.618
		c-0.174-0.068-0.314-0.192-0.503-0.27c-0.112-0.047-0.237-0.081-0.369-0.109c-0.01-0.023-0.014-0.048-0.011-0.075
		c0.001-0.015,0.003-0.031,0.006-0.046c0.059,0.027,0.122,0.044,0.186,0.045c0.1,0.004,0.192-0.026,0.269-0.064
		c0.074-0.037,0.147-0.081,0.212-0.15c0.03-0.036,0.06-0.081,0.066-0.138c0.007-0.057-0.017-0.113-0.049-0.147
		c-0.066-0.069-0.152-0.101-0.24-0.091c-0.044,0.004-0.091,0.036-0.1,0.081c-0.01,0.043,0.003,0.082,0.018,0.117
		c-0.007-0.038-0.008-0.077,0.006-0.108c0.016-0.031,0.047-0.042,0.079-0.038c0.064,0.005,0.13,0.05,0.157,0.099
		c0.058,0.095-0.088,0.165-0.219,0.204c-0.118,0.035-0.216,0.02-0.286-0.042c0.021-0.039,0.044-0.078,0.065-0.118
		c0.035-0.065,0.072-0.132,0.103-0.212c0.233,0.018,0.446-0.071,0.627-0.182c-0.198,0.067-0.41,0.102-0.598,0.055
		c0.008-0.058,0.007-0.116,0-0.173c-0.024-0.184-0.104-0.339-0.108-0.444c-0.001-0.037,0.004-0.066,0.018-0.094
		c0.012-0.007,0.025-0.014,0.038-0.021c0.01,0.013,0.021,0.025,0.034,0.038c0.052,0.047,0.127,0.055,0.182,0.04
		c0.112-0.03,0.193-0.099,0.271-0.168c-0.09,0.05-0.188,0.097-0.279,0.101c-0.056,0.003-0.091-0.019-0.112-0.057
		c0.102-0.013,0.201-0.053,0.276-0.119c0.106-0.091,0.171-0.208,0.228-0.325c-0.081,0.101-0.168,0.2-0.274,0.261
		c-0.057,0.033-0.117,0.052-0.18,0.058c0.032-0.022,0.067-0.044,0.112-0.071c0.067-0.034,0.195-0.144,0.235-0.26
		c0.046-0.111,0.056-0.202,0.066-0.29c0.009-0.096,0.009-0.184-0.005-0.284c0.052-0.011,0.104-0.024,0.157-0.042
		c0.069-0.025,0.143-0.049,0.217-0.121c0.037-0.035,0.07-0.11,0.054-0.173c-0.015-0.061-0.048-0.097-0.077-0.125
		c-0.065-0.055-0.135-0.092-0.205-0.117c0.049-0.053,0.079-0.134,0.058-0.202c-0.022-0.084-0.074-0.142-0.133-0.186
		c-0.042-0.03-0.092-0.055-0.145-0.062c0.005-0.015,0.009-0.031,0.014-0.046c0.014-0.038,0.026-0.077,0.038-0.116
		c0.124,0.048,0.254,0.099,0.389,0.078c-0.138-0.011-0.249-0.087-0.365-0.161c0.051-0.194,0.082-0.399,0.091-0.604
		c0.005-0.139-0.001-0.282-0.029-0.428c-0.003-0.013-0.006-0.027-0.009-0.041c0.065-0.019,0.124-0.049,0.18-0.082
		c-0.059,0.021-0.127,0.037-0.189,0.041c-0.032-0.121-0.083-0.245-0.179-0.358c-0.017-0.019-0.034-0.037-0.053-0.054
		c0.004-0.015,0.009-0.029,0.014-0.044c0.011-0.047,0.082-0.042,0.123-0.092c0.045,0,0.09-0.003,0.134-0.009
		c-0.015,0.039-0.023,0.082,0.006,0.087c-0.005,0.042-0.003,0.087,0.01,0.135c0.038,0.161,0.17,0.274,0.299,0.326
		c0.131,0.055,0.268,0.073,0.401,0.076c-0.129-0.033-0.256-0.081-0.359-0.152c-0.103-0.069-0.172-0.166-0.18-0.27
		c0.003,0.003,0.006,0.007,0.009,0.01c0.042,0.044,0.098,0.063,0.15,0.074c-0.049-0.023-0.097-0.053-0.122-0.095
		c-0.019-0.032-0.022-0.067-0.017-0.102c0.027-0.055,0.076-0.112,0.129-0.178c0.177-0.072,0.336-0.179,0.468-0.309
		c-0.119,0.074-0.247,0.131-0.378,0.173c0.012-0.023,0.023-0.048,0.032-0.075c0.013-0.044,0.021-0.092,0.02-0.14l-0.002-0.035V43.09
		c-0.001-0.005,0.002,0.007-0.002-0.014l-0.001-0.004l-0.005-0.017c-0.005-0.022-0.011-0.044-0.02-0.065
		c-0.028-0.073-0.069-0.132-0.117-0.184c0.031-0.025,0.064-0.061,0.085-0.118c0.027-0.081-0.014-0.164-0.049-0.203
		c-0.038-0.039-0.076-0.071-0.114-0.097c-0.061-0.057-0.146-0.126-0.214-0.103c-0.045-0.016-0.09-0.029-0.135-0.044
		c-0.015-0.003-0.028-0.007-0.043-0.011c0.028-0.034,0.072-0.045,0.1-0.084c0.01-0.029,0.022-0.056,0.036-0.083
		c0.009-0.006,0.018-0.012,0.027-0.019c0.036,0.005,0.072,0.012,0.107,0.021c0.064,0.018,0.122,0.058,0.178,0.11
		c0.054,0.052,0.094,0.118,0.145,0.192c0.046,0.078,0.148,0.143,0.238,0.138c0.09,0.002,0.173-0.02,0.254-0.044
		c-0.165,0.014-0.356,0.006-0.404-0.148c-0.06-0.146-0.153-0.331-0.344-0.415c0.064-0.062,0.124-0.131,0.177-0.211
		c0.108-0.174,0.177-0.39,0.104-0.626c-0.039-0.116-0.128-0.216-0.228-0.276c-0.1-0.061-0.205-0.093-0.309-0.109
		c-0.07-0.011-0.14-0.016-0.209-0.015c-0.003-0.016-0.007-0.032-0.011-0.048c-0.02-0.077-0.032-0.158-0.058-0.241
		c0.048,0.069,0.07,0.157,0.056,0.158c0.019,0,0.024-0.032,0.021-0.073c0.03,0.045,0.084,0.077,0.135,0.079
		c0.057,0.005,0.109-0.009,0.159-0.027c-0.104,0.017-0.222-0.004-0.247-0.097c-0.031-0.088-0.021-0.193-0.034-0.303
		c-0.007-0.055-0.017-0.116-0.056-0.175c-0.042-0.064-0.12-0.094-0.181-0.101c-0.128-0.014-0.239,0.019-0.346,0.065
		c-0.016,0.008-0.031,0.016-0.047,0.024c-0.115-0.035-0.234-0.103-0.309-0.151c-0.014-0.006-0.017-0.194-0.019-0.225
		c0.001-0.002,0.003-0.004,0.004-0.006c0.041,0.012,0.084,0.02,0.127,0.023c0.018,0.012,0.037,0.021,0.06,0.026
		c0.055,0.007,0.102-0.013,0.143-0.04c0.014-0.003,0.026-0.006,0.04-0.01c0.181-0.051,0.334-0.16,0.453-0.292
		c-0.22,0.158-0.506,0.25-0.741,0.187c-0.004-0.01-0.008-0.021-0.011-0.031c-0.036-0.122-0.049-0.251-0.063-0.381
		c0.018,0.005,0.038,0.01,0.058,0.013c0.21,0.025,0.364-0.107,0.486-0.224c-0.146,0.09-0.319,0.17-0.464,0.12
		c-0.034-0.012-0.067-0.028-0.1-0.048c-0.007-0.051-0.018-0.102-0.043-0.158c-0.046-0.078-0.107-0.133-0.18-0.176
		c-0.116-0.066-0.261-0.088-0.393-0.05c-0.082-0.019-0.162-0.026-0.243-0.028c-0.047,0-0.095,0.001-0.142,0.004
		c-0.063-0.025-0.128-0.051-0.191-0.076c-0.024-0.016-0.044-0.034-0.068-0.05c-0.116-0.075-0.236-0.147-0.361-0.214
		c-0.032-0.073-0.075-0.145-0.15-0.206c-0.158-0.099-0.309-0.086-0.456-0.06c-0.389-0.133-0.828-0.215-1.351-0.216
		c-0.288,0.021-0.513,0.105-0.811,0.116c-0.253,0.121-0.529,0.218-0.812,0.309c-0.157,0.095-0.308,0.197-0.452,0.305
		c-0.08-0.042-0.146-0.144-0.185-0.242c0.015,0.079,0.036,0.158,0.082,0.23c0.012,0.02,0.027,0.038,0.046,0.055
		c-0.118,0.091-0.23,0.187-0.339,0.287c-0.053,0.003-0.109,0.006-0.167,0.012c-0.082,0.009-0.172,0.021-0.267,0.074
		c-0.023,0.015-0.047,0.031-0.067,0.053c-0.005,0.005-0.035,0.035-0.048,0.054c-0.034,0.044-0.056,0.096-0.065,0.143
		c-0.003,0.012-0.005,0.024-0.007,0.036c-0.015,0.023-0.027,0.049-0.038,0.078c-0.022,0.048,0.023,0.081,0.004,0.128
		c-0.02,0.079-0.099,0.108-0.112,0.191c-0.027,0.079,0.007,0.106-0.023,0.16c-0.033,0.011-0.079-0.008-0.121-0.051
		c-0.097-0.1-0.155-0.25-0.184-0.399c-0.005,0.154,0.018,0.316,0.111,0.459c0.024,0.035,0.056,0.07,0.1,0.095
		c-0.038,0.038-0.075,0.076-0.107,0.12c-0.067,0.141-0.08,0.285-0.095,0.432c-0.05,0.086-0.1,0.172-0.152,0.255
		c-0.006,0.104-0.027,0.191-0.052,0.276c-0.021,0.013-0.045,0.024-0.072,0.034c-0.051,0.018-0.109,0.057-0.164,0.103
		c-0.117,0.066-0.252,0.157-0.325,0.302c-0.066,0.132-0.075,0.277-0.049,0.409c-0.097,0.03,0.032,0.182,0.038,0.199
		c-0.001,0.013-0.004,0.023-0.008,0.031c-0.034,0.012-0.067,0.022-0.102,0.031c-0.008-0.001-0.015,0-0.021,0.005
		c-0.018,0.004-0.035,0.007-0.053,0.01c-0.078,0.011-0.167,0.01-0.205-0.048c-0.039-0.063-0.017-0.161,0.012-0.243
		c-0.043,0.075-0.098,0.161-0.064,0.267c0.048,0.11,0.174,0.128,0.264,0.131c0.059,0,0.118-0.004,0.176-0.013
		c-0.046,0.021-0.09,0.045-0.13,0.075c-0.038,0.016-0.074,0.034-0.1,0.06c-0.002,0.008-0.006,0.022-0.012,0.041
		c-0.037,0.042-0.069,0.089-0.093,0.139c-0.045,0.084-0.079,0.171-0.112,0.257l-0.021,0.054c-0.009,0.016-0.017,0.032-0.024,0.049
		c-0.035-0.015-0.054-0.057-0.084-0.087c0.024,0.035,0.03,0.084,0.073,0.113c-0.029,0.073-0.045,0.151-0.046,0.231
		c-0.004,0.012-0.008,0.023-0.012,0.033c0.004,0.001,0.009,0.003,0.013,0.005c0,0.009,0.001,0.019,0.002,0.028
		c0.012,0.122,0.075,0.213,0.129,0.283c0.049,0.063,0.099,0.118,0.127,0.164c-0.02,0.044-0.039,0.085-0.064,0.122
		c-0.008,0.005-0.017,0.01-0.024,0.016c-0.039,0.027-0.074,0.06-0.105,0.096c-0.056,0.016-0.118,0.019-0.171,0.026
		c-0.003,0.019-0.005,0.038-0.006,0.057c-0.088-0.043-0.165-0.145-0.226-0.259c0.001-0.01,0.003-0.021,0.006-0.031
		c-0.004,0.008-0.007,0.015-0.011,0.023c-0.02-0.041-0.04-0.083-0.057-0.125c-0.064-0.168-0.114-0.354-0.076-0.539
		c-0.081,0.175-0.07,0.381-0.034,0.571c0.046,0.188,0.101,0.392,0.303,0.537c0.036,0.026,0.08,0.042,0.127,0.049
		c0.001,0.003,0.002,0.006,0.003,0.01c-0.032,0.171-0.022,0.323-0.066,0.462c-0.025,0.083-0.077,0.143-0.171,0.145
		c-0.007,0-0.015,0-0.022,0c-0.041-0.016-0.08-0.034-0.117-0.059c-0.063-0.041-0.119-0.088-0.145-0.155
		c-0.027-0.067-0.014-0.149,0.014-0.224c-0.042,0.066-0.079,0.147-0.064,0.236c0.008,0.05,0.031,0.096,0.058,0.135
		c0.001,0.001,0.003,0.002,0.004,0.003c0.022,0.03,0.048,0.057,0.074,0.081c0.063,0.059,0.138,0.103,0.214,0.14
		c0.04,0.017,0.085,0.041,0.158,0.029c0.078-0.018,0.113-0.073,0.139-0.101c0.02-0.026,0.039-0.047,0.059-0.068
		c0.017,0.013,0.036,0.021,0.061,0.023c-0.036,0.04-0.071,0.083-0.104,0.129c-0.077,0.109-0.141,0.241-0.159,0.388
		c-0.005,0.036-0.006,0.076-0.005,0.109c0,0.041,0.007,0.08,0.016,0.117c0.009,0.033,0.02,0.063,0.031,0.091
		c-0.063,0.017-0.126,0.023-0.188,0.015c-0.124-0.013-0.223-0.109-0.247-0.253c-0.025-0.143,0.009-0.301,0.059-0.45
		c-0.082,0.134-0.154,0.283-0.161,0.456c-0.002,0.086,0.018,0.18,0.071,0.261c0.054,0.081,0.139,0.141,0.229,0.171
		c0.117,0.039,0.238,0.04,0.354,0.017c0.033,0.059,0.061,0.112,0.07,0.163c0.008,0.032,0.008,0.066-0.001,0.1
		c-0.024-0.002-0.047-0.004-0.07-0.007c-0.085-0.01-0.17-0.023-0.243-0.061c-0.074-0.034-0.123-0.113-0.113-0.205
		c-0.032,0.084,0.001,0.194,0.081,0.252c0.076,0.061,0.166,0.093,0.254,0.12c0.013,0.003,0.025,0.006,0.037,0.01
		c-0.008,0.01-0.017,0.02-0.026,0.029c-0.084,0.078-0.205,0.13-0.334,0.141c0.007-0.016,0.014-0.032,0.022-0.048
		c-0.014,0.016-0.026,0.032-0.037,0.05c-0.09,0.005-0.182-0.011-0.266-0.053c0.066,0.054,0.146,0.091,0.232,0.109
		c-0.01,0.022-0.019,0.044-0.023,0.069c-0.018,0.069,0.016,0.158,0.083,0.2c0.02,0.013,0.042,0.024,0.064,0.033
		c-0.084,0.023-0.142,0.133-0.103,0.224c0.034,0.089,0.101,0.153,0.19,0.191c0.086,0.036,0.183,0.034,0.268,0.015
		c0.049,0.086,0.106,0.166,0.15,0.255c0.001,0.024-0.005,0.047-0.017,0.071c-0.01,0.018-0.021,0.035-0.035,0.05
		c-0.029,0.009-0.057,0.019-0.055,0.048c-0.018,0.011-0.038,0.018-0.059,0.021c-0.138,0.012-0.302-0.117-0.346-0.282
		c0.01,0.171,0.133,0.359,0.347,0.388c0.054,0.003,0.109-0.012,0.157-0.039c0.016-0.01,0.028-0.02,0.041-0.03
		c0.051,0.049,0.098,0.103,0.124,0.168c0.016,0.038,0.055,0.1,0.104,0.149c-0.017,0.043-0.028,0.089-0.033,0.137
		c-0.104-0.059-0.191-0.164-0.229-0.29c0.008,0.122,0.065,0.249,0.161,0.34c0.002,0.007,0.004,0.013,0.006,0.019
		c-0.054,0.028-0.108,0.055-0.167,0.079c-0.665,0.046-1.031-0.205-1.545-0.309c-0.518-0.041-0.878,0.075-1.236,0.193
		c-0.171,0.125-0.332,0.261-0.541,0.348c-0.762,0.655-1.094,1.74-1.546,2.705c-0.519,0.666-0.94,1.429-1.507,2.048
		c-0.253,0.34-0.563,0.622-0.812,0.966c-0.305,0.275-0.505,0.654-0.811,0.927c-0.982-1.053-2.507-1.563-3.671-2.434
		c-0.428-0.242-0.727-0.612-1.197-0.812c-0.616-0.736-1.341-1.364-2.241-1.816c-0.032,0.059-0.204,0.036-0.193,0.039
		c-0.246-0.073-0.394,0.327-0.579,0.425c-0.155,0.154-0.337,0.282-0.464,0.464c0.031,0.263-0.041,0.423-0.077,0.618
		c0.25,0.046,0.239,0.353,0.579,0.309c0.242-0.058,0.31-0.439,0.271-0.657c0.114-0.095,0.156,0.13,0.271,0.155
		c0.203,0.286,0.538,0.44,0.657,0.811c-0.279,0.095-0.69,0.058-0.657,0.464c0.033,0.29,0.477,0.167,0.772,0.193
		c0.148,0.045,0.32,0.066,0.464,0.116c0.152-0.042,0.378-0.008,0.503-0.077c1.253,1.258,2.203,2.819,3.632,3.902
		c0.183,0.269,0.406,0.496,0.618,0.734c0.097-0.007,0.121,0.059,0.154,0.116c0.237,0.059,0.411,0.182,0.618,0.271
		c0.423-0.066,0.761-0.218,1.198-0.271c0.46-0.299,0.825-0.694,1.197-1.082c0.135-0.239,0.293-0.454,0.464-0.657
		c0.113-0.261,0.295-0.452,0.502-0.618c0.302-0.459,0.781-0.739,1.082-1.198c0.254-0.213,0.468-0.467,0.684-0.718
		c0.105-0.123,0.212-0.244,0.322-0.362c0.11-0.119,0.14-0.282,0.212-0.428c0.056-0.113,0.305-0.594,0.388-0.294
		c0.083,0.297,0.131,0.662,0.13,0.97c0,0.2,0.006,0.386,0.031,0.581c0.021,0.162,0.123,0.298,0.146,0.459
		c0.021,0.146,0.004,0.32,0.02,0.458c0.018,0.164,0.027,0.328,0.039,0.492c0.073,0.571,0.304,0.984,0.348,1.584
		c0.104,0.54,0.206,1.083,0.387,1.545c0.022,0.184,0.056,0.357,0.039,0.58c-0.038,0.179,0.23,0.052,0.192,0.232
		c0.092,0.604,0.28,1.111,0.271,1.816c0.032,0.199-0.177,0.157-0.192,0.309c-0.026,0.206-0.096,0.369-0.116,0.58
		c0,0.077,0,0.154,0,0.231c0.029,0.073,0.115,0.027,0.038,0.116c-0.226,2.003-0.79,3.666-1.043,5.642
		c-0.34,1.889-0.655,3.801-1.159,5.525c0.16,0.149,0.492,0.126,0.734,0.193c0.055,0.007-0.062,0.285,0.038,0.348
		c0.476,0.13,1.088,0.123,1.623,0.193c0.272,1.157,0.306,2.554,0.503,3.786c0.01,1.742-0.04,3.543,0.115,5.139
		c0.342,0.935,0.809,1.742,1.236,2.59c0.071,0.341,0.194,0.63,0.31,0.927c-0.019,0.213-0.149,0.314-0.193,0.502
		c-0.16,1.051-0.233,2.188-0.464,3.169c-0.013,0.541,0.008,1.049,0.078,1.507c0.151,0.222,0.347,0.4,0.541,0.58
		c0.697,0.259,1.423,0.683,2.356,0.579c0.224-0.191,0.308-0.63,0.232-1.005c-0.09-0.127,0.179-0.163,0.115-0.386
		c-0.003-0.371-0.085-0.662-0.115-1.005c-0.02-0.162-0.116-0.245-0.155-0.387c0.017-0.183-0.056-0.278-0.077-0.425
		c-0.061-0.287-0.098-0.598-0.154-0.889c-0.011-0.415,0.029-0.88-0.039-1.236c-0.002-0.222,0.11-0.327,0.077-0.58
		c-0.025-0.244-0.146-0.394-0.231-0.579c-0.121-0.936,0.012-1.855,0.193-2.589c0.056-1.073-0.247-1.788-0.58-2.473
		c0.03-0.435,0.193-0.735,0.232-1.16c0.014-1.042-0.035-2.146,0.038-3.129c0.116-0.941,0.173-1.941,0.271-2.899
		c0.07-0.084,0.303-0.007,0.387-0.077c0.083,0.357,0.022,0.72,0.039,1.082c0.01,0.229,0.066,0.469,0.077,0.695
		c0.014,0.272-0.012,0.538,0,0.812c0.015,0.365,0.056,0.727,0.038,1.082c-0.044,0.891-0.253,1.749-0.154,2.628
		c0.092,0.384,0.181,0.771,0.309,1.12c-0.044,0.344,0.04,0.645,0.039,1.043c-0.058,0.741-0.207,1.391-0.271,2.125
		c-0.112,1.825,0.412,3.014,0.502,4.637c-0.026,0.478,0.037,0.94,0,1.353c-0.034,0.39-0.201,0.721-0.193,1.082
		c0.014,0.244,0.082,0.434,0.116,0.657c0.023,0.706-0.191,1.173-0.348,1.7c-0.086,0.171-0.26,0.255-0.348,0.425
		c-0.079,0.449-0.31,0.747-0.31,1.275c-0.028,0.222,0.061,0.325,0.155,0.425c-0.016,0.108-0.107,0.159-0.116,0.27
		c-0.009,0.115,0.065,0.193,0.077,0.309c0.556,0.131,1.228,0.01,1.816-0.077c0.605-0.089,1.207-0.161,1.584-0.464
		c0.1-0.325,0.123-0.727,0.154-1.12c-0.058-0.315-0.157-0.59-0.115-1.005c-0.111-0.404-0.22-0.811-0.387-1.159
		c0.062-0.247,0.115-0.531,0.077-0.772c-0.062-0.26-0.154-0.49-0.193-0.772c0.005-0.335,0.146-0.651,0.193-0.967
		c0.052-0.344,0.046-0.703,0.077-1.043c0.062-0.67,0.2-1.321,0.31-1.971c0.216-1.283,0.53-2.55,0.579-3.941
		c-0.073-1.085-0.153-2.165-0.387-3.091c0.181-2.408,0.491-4.687,1.005-6.762c0.976-0.158,1.978-0.29,2.859-0.541
		c0.163-0.069,0.2-0.264,0.348-0.348c0.411-0.092,0.839-0.167,1.198-0.31c-0.013-0.09-0.047-0.159-0.077-0.231
		c0.097,0.007,0.121-0.06,0.154-0.116c-0.062-0.261-0.25-0.394-0.308-0.656c-0.312-0.617-0.616-1.239-0.928-1.855
		c-0.408-0.841-0.696-1.802-1.043-2.704c-0.631-1.868-1.473-3.525-2.28-5.217c0.096-0.264-0.046-0.483-0.116-0.695
		c-0.028-0.138-0.089-0.246-0.231-0.271c0.021-0.176-0.068-0.241-0.038-0.425c-0.07-0.198,0.139-0.118,0.154-0.232
		c0.011-0.15,0.038-0.263,0.038-0.502c0.088-0.091,0.116,0.048,0.155,0.116c0.099,0.004,0.055,0.151,0.154,0.155
		c0.097,0.123,0.185,0.253,0.271,0.386c0.2,0.225,0.357,0.492,0.579,0.695c0.64,0.818,1.386,1.516,2.087,2.28
		c0.498,0.542,1.111,1.111,1.623,1.7c0.061,0.262,0.12,0.524,0.271,0.695c0.052,0.45,0.193,0.816,0.353,1.153
		c0.1,0.313,0.28,0.79,0.497,0.74c0.216-0.275-0.108-0.594-0.058-0.849c0.173,0.11,0.363,0.264,0.433,0.478
		c0.14,0.102-0.129,0.268-0.221,0.333c-0.021,0.011-0.115,0.207-0.038,0.309c0.106,0.113,0.463-0.272,0.653-0.342
		c0.016,0.443-0.609,0.599-0.422,0.883c0.157,0.146,0.537-0.258,0.812-0.348c0.057-0.121,0.057-0.153,0.077-0.309
		c0.36,0.335-0.222,1.081,0.039,1.197c0.212,0.063,0.284-0.334,0.387-0.541c0.097,0.212,0.269,0.569,0.425,0.502
		C112.438,68.63,111.926,67.347,111.84,66.633z M105.354,45.976c-0.045-0.028-0.089-0.052-0.133-0.074
		c-0.026-0.049-0.056-0.101-0.081-0.159c-0.019-0.043-0.187-0.605-0.017-0.523c-0.009-0.018-0.016-0.035-0.021-0.051
		c0.022,0.018,0.046,0.027,0.062,0.032c0.058,0.017,0.099,0.018,0.142,0.025c0.029,0.004,0.056,0.008,0.085,0.014
		c-0.008,0.046-0.017,0.091-0.027,0.138c-0.021,0.134-0.047,0.271-0.017,0.435c0.009,0.041,0.021,0.086,0.054,0.131
		c0.011,0.017,0.025,0.032,0.041,0.045c-0.001,0.019,0,0.037,0.004,0.053C105.416,46.018,105.386,45.995,105.354,45.976z
		 M105.315,43.231c-0.039-0.03-0.01-0.089,0.033-0.102c0.005,0.026,0.008,0.053,0.009,0.08c0.001,0.007,0.001,0.013,0.001,0.02
		C105.348,43.236,105.334,43.239,105.315,43.231z M105.369,44.23c0.004,0.01,0.007,0.021,0.01,0.032
		c-0.011,0-0.023-0.002-0.035-0.005c-0.013-0.025-0.017-0.044-0.017-0.057C105.343,44.209,105.356,44.22,105.369,44.23z
		 M105.347,44.295c-0.001,0,0.02,0.014,0.048,0.032c0.009,0.04,0.016,0.081,0.021,0.123c-0.004,0.004-0.007,0.008-0.01,0.015
		c-0.048-0.007-0.067,0.048-0.118,0.025C105.322,44.427,105.322,44.359,105.347,44.295z M105.287,42.984L105.287,42.984
		c-0.053-0.014-0.067-0.059-0.051-0.088c0.024,0.02,0.044,0.045,0.061,0.074C105.294,42.974,105.29,42.979,105.287,42.984z
		 M105.422,44.501c0.001,0.014,0.003,0.027,0.004,0.041c-0.005,0.007-0.009,0.014-0.015,0.021c-0.032,0.045-0.105,0.086-0.186,0.154
		c-0.027,0.024-0.053,0.05-0.076,0.082c-0.027-0.009-0.054-0.02-0.065-0.041c-0.037-0.07,0.071-0.037,0.086-0.063
		C105.245,44.611,105.356,44.578,105.422,44.501z M105.289,44.958c0.002-0.003,0.004-0.007,0.007-0.011
		c0.012-0.018,0.037-0.042,0.064-0.062c0.02-0.014,0.044-0.028,0.07-0.044c-0.002,0.054-0.005,0.108-0.01,0.162
		C105.38,44.981,105.335,44.965,105.289,44.958z M105.314,45.074c-0.027-0.008-0.056-0.016-0.076-0.024
		c0.001-0.001,0.002-0.002,0.003-0.004c0-0.001,0.001-0.002,0.001-0.003C105.266,45.05,105.29,45.061,105.314,45.074z
		 M105.605,45.542c0.039,0.013,0.075,0.042,0.104,0.072c0.039,0.042,0.065,0.097,0.066,0.141c0,0.045-0.021,0.064-0.063,0.083
		c-0.042,0.018-0.104,0.024-0.125,0.012c-0.013-0.008-0.016-0.019-0.021-0.07C105.565,45.71,105.582,45.627,105.605,45.542z
		 M105.542,46.038c0.071,0.01,0.127-0.002,0.178-0.023c0.083,0.037,0.161,0.091,0.208,0.15c0.015,0.019,0.021,0.04,0.019,0.044
		c-0.004,0.003-0.002-0.005-0.014,0.004c-0.023,0.016-0.081,0.034-0.138,0.042c-0.056,0.009-0.115,0.014-0.176,0.017
		c-0.035-0.069-0.081-0.135-0.135-0.191c-0.006-0.023-0.009-0.045-0.005-0.065C105.499,46.027,105.521,46.035,105.542,46.038z
		 M105.936,43.223c-0.009,0.055-0.044,0.129-0.079,0.196c-0.002,0-0.004,0.001-0.006,0.001c-0.104,0.01-0.208,0.005-0.303-0.017
		c0.007-0.045,0.012-0.09,0.015-0.136c0.017-0.034,0.026-0.071,0.022-0.073c0.022-0.03-0.001-0.037-0.021-0.047
		c-0.001-0.025-0.004-0.052-0.008-0.079c0.007-0.031,0.009-0.063,0.012-0.095c0.06-0.01,0.122-0.018,0.187-0.029
		c0.028,0.013,0.054,0.027,0.077,0.041c-0.002,0.009-0.007,0.019-0.014,0.029c0.006,0,0.017-0.008,0.029-0.02
		c0.046,0.031,0.083,0.065,0.106,0.105C105.935,43.142,105.919,43.183,105.936,43.223z M105.916,42.581
		c-0.027,0.013-0.059,0.023-0.091,0.029c-0.079-0.04-0.159-0.076-0.236-0.107c-0.001-0.013,0-0.027,0.003-0.041
		c0.006,0.001,0.013,0.003,0.02,0.005C105.716,42.493,105.835,42.533,105.916,42.581z M105.726,41.833
		c-0.007-0.001-0.013-0.002-0.02-0.002c-0.039-0.025-0.001-0.14,0.047-0.111C105.767,41.748,105.742,41.792,105.726,41.833z
		 M106.012,41.151c0.051,0.116,0.031,0.298-0.04,0.44c-0.019,0.039-0.039,0.076-0.064,0.112c0.083-0.223,0.079-0.501-0.047-0.699
		C105.932,41.039,105.985,41.088,106.012,41.151z M105.67,40.951c0.029,0.004,0.059,0.009,0.086,0.017
		c0.05,0.046,0.088,0.104,0.122,0.172c-0.098-0.054-0.193-0.113-0.258-0.194v0C105.637,40.947,105.653,40.949,105.67,40.951z
		 M105.564,41c0.096,0.083,0.209,0.121,0.319,0.153c0.001,0.001,0.002,0.002,0.002,0.003c-0.023,0.132,0.037,0.262-0.014,0.396
		c0,0.002-0.177-0.244-0.198-0.283c-0.065-0.121-0.143-0.19-0.138-0.296C105.545,40.983,105.555,40.991,105.564,41z M105.508,42.035
		c0.037,0,0.073-0.001,0.108-0.001c-0.036,0.034-0.074,0.067-0.112,0.1c-0.056-0.001-0.129-0.012-0.064-0.038
		C105.483,42.079,105.499,42.06,105.508,42.035z M105.485,41.251c-0.05,0.012-0.181-0.051-0.131-0.125
		C105.39,41.171,105.502,41.183,105.485,41.251z M105.364,40.012c0.023,0.026,0.039,0.07,0.05,0.118
		c0.01,0.034,0.016,0.07,0.022,0.107c-0.025-0.009-0.053-0.019-0.075-0.031c-0.017-0.028-0.037-0.053-0.06-0.075
		c0-0.018,0.007-0.039,0.025-0.063c0.019-0.028,0.005-0.06-0.025-0.088C105.329,39.984,105.35,39.994,105.364,40.012z
		 M105.331,40.591c-0.024,0.061-0.123,0.1-0.138,0.002C105.179,40.498,105.311,40.544,105.331,40.591z M105.089,40.242
		c0.01-0.01,0.025-0.014,0.044-0.013c0.035,0.021,0.065,0.049,0.09,0.085C105.192,40.345,105.048,40.311,105.089,40.242z
		 M105.126,43.556c-0.005-0.001-0.01-0.001-0.014-0.001c0.001-0.001,0.003-0.003,0.004-0.004
		C105.12,43.552,105.123,43.554,105.126,43.556z M105.152,44.145c0,0.051-0.03,0.128-0.097,0.107
		C105.039,44.198,105.091,44.111,105.152,44.145z M105.144,44.486c-0.025,0.051-0.032,0.144-0.096,0.106
		C105.031,44.541,105.085,44.458,105.144,44.486z M105.002,46.441c-0.003,0.012-0.009,0.021-0.016,0.027
		c-0.005-0.016-0.01-0.033-0.015-0.049C104.982,46.426,104.992,46.434,105.002,46.441z M104.859,39.558
		c-0.031,0.011-0.063,0.015-0.094,0.008C104.798,39.565,104.828,39.563,104.859,39.558z M96.346,43.021
		c-0.001-0.028,0.001-0.058,0.007-0.087c0.001,0,0.001,0.001,0.002,0.001C96.352,42.964,96.349,42.993,96.346,43.021z
		 M96.103,43.815c-0.01,0.004-0.019,0.007-0.028,0.009c0.003-0.006,0.005-0.012,0.008-0.018c0.006,0,0.017-0.002,0.029-0.005
		C96.108,43.805,96.105,43.81,96.103,43.815z M96.124,44.417c0.011-0.033,0.02-0.066,0.028-0.099c0.07-0.074,0.11-0.166,0.169-0.247
		c0.003-0.003,0.005-0.005,0.007-0.008c-0.038,0.064-0.071,0.128-0.105,0.188C96.19,44.31,96.159,44.365,96.124,44.417z
		 M96.297,45.179c-0.011,0-0.021-0.002-0.03-0.004c0.007-0.015,0.015-0.03,0.022-0.045c0.002,0.015,0.005,0.029,0.007,0.043
		C96.297,45.175,96.297,45.177,96.297,45.179z M96.177,44.65c0.025-0.024,0.051-0.05,0.081-0.084
		c0.013-0.014,0.024-0.028,0.036-0.043c-0.007,0.033-0.013,0.065-0.018,0.098c-0.015,0.014-0.031,0.025-0.049,0.032
		C96.21,44.66,96.193,44.658,96.177,44.65z M96.242,45.319c-0.005-0.002-0.009-0.003-0.014-0.005
		c0.002-0.021,0.005-0.037,0.01-0.056c0.001-0.007,0.004-0.014,0.006-0.021C96.264,45.255,96.266,45.28,96.242,45.319z
		 M95.828,46.834c-0.031-0.043-0.017-0.111,0.041-0.14c0.027-0.013,0.061-0.012,0.082,0.014c0.022,0.025,0.03,0.064,0.032,0.102
		c0.006-0.037,0.01-0.078-0.011-0.116c-0.003-0.006-0.007-0.012-0.011-0.017c0.05,0.003,0.1-0.002,0.149-0.014
		c-0.012,0.081-0.004,0.167,0.017,0.247C96.021,46.954,95.897,46.935,95.828,46.834z M96.131,46.494
		c-0.086,0.059-0.213,0.09-0.311,0.05c-0.049-0.02-0.081-0.064-0.082-0.124c0-0.023,0.003-0.046,0.008-0.068
		c0.146,0.023,0.307-0.006,0.443-0.091c0.04-0.026,0.077-0.061,0.108-0.102c0.021,0.004,0.043,0.006,0.065,0.007
		C96.329,46.299,96.257,46.417,96.131,46.494z M96.334,45.674c0.012-0.005,0.023-0.011,0.035-0.017
		c0.004,0.041,0.008,0.081,0.011,0.122c-0.008-0.005-0.015-0.012-0.021-0.021c-0.007-0.026-0.016-0.051-0.024-0.076
		C96.335,45.68,96.334,45.677,96.334,45.674z M96.386,46.01c-0.005,0.001-0.011,0.001-0.017,0.002
		c0.009-0.034,0.014-0.069,0.013-0.106c0.002,0,0.003,0.001,0.005,0.001c0,0.003,0,0.006,0.001,0.009
		C96.389,45.948,96.388,45.979,96.386,46.01z M96.273,44.1c-0.025-0.008-0.042-0.019-0.053-0.031
		c0.008-0.024,0.018-0.047,0.028-0.069l0.001-0.001c0.008-0.004,0.015-0.008,0.021-0.013c0.053-0.032,0.095-0.067,0.133-0.104
		c0.003,0.001,0.006,0.002,0.009,0.003C96.374,43.961,96.315,44.024,96.273,44.1z M96.483,43.205
		c0.006,0.003,0.012,0.007,0.016,0.012c-0.011,0.017-0.021,0.034-0.031,0.051c-0.002-0.002-0.004-0.005-0.006-0.008
		C96.465,43.243,96.473,43.225,96.483,43.205z M96.499,46.597c-0.004,0.005-0.008,0.01-0.012,0.015
		c-0.019-0.011-0.028-0.026-0.036-0.042c0.01-0.017,0.021-0.032,0.033-0.046C96.474,46.555,96.512,46.567,96.499,46.597z
		 M99.9,90.087c-0.011,0.011-0.059-0.018-0.039-0.038C99.872,90.038,99.92,90.067,99.9,90.087z M99.822,89.894
		c0.011-0.011,0.058,0.02,0.039,0.039C99.851,89.943,99.803,89.914,99.822,89.894z M104.587,47.027
		c-0.001,0.015-0.003,0.03-0.005,0.046c0,0.005-0.001,0.01-0.002,0.016C104.509,47.054,104.546,47.029,104.587,47.027z
		 M104.887,48.586c-0.002,0.007-0.004,0.014-0.007,0.021c-0.012-0.03-0.022-0.061-0.03-0.092c0.018-0.058-0.018-0.127-0.007-0.158
		c0.032,0.017,0.064,0.032,0.099,0.045C104.93,48.459,104.908,48.522,104.887,48.586z M104.842,47.992
		c0.035,0.075,0.069,0.138,0.086,0.203c-0.035-0.027-0.068-0.058-0.1-0.09C104.831,48.067,104.836,48.03,104.842,47.992z
		 M104.598,39.416c-0.007-0.003-0.014-0.006-0.02-0.009c-0.002-0.034-0.001-0.065-0.021-0.107c-0.03-0.067-0.02-0.106-0.059-0.165
		c-0.055-0.083-0.091-0.046-0.071-0.156c0.001-0.005,0.002-0.011,0.002-0.016c0.021,0.011,0.044,0.021,0.066,0.031
		C104.522,39.133,104.544,39.278,104.598,39.416z M104.455,38.805c-0.065-0.053-0.132-0.112-0.207-0.163
		c-0.02-0.013-0.039-0.026-0.06-0.039C104.301,38.63,104.402,38.701,104.455,38.805z M104.079,38.766
		c0.024,0.011,0.048,0.022,0.072,0.035c0.055,0.026,0.108,0.061,0.165,0.096c-0.021,0.021-0.049,0.047-0.122,0.002
		C104.166,38.88,104.046,38.811,104.079,38.766z M97.366,46.581c0.001,0,0.003,0.001,0.005,0.002
		c-0.001,0.007-0.003,0.012-0.005,0.018C97.366,46.594,97.366,46.587,97.366,46.581z M97.378,47.566
		c0.005-0.029,0.011-0.059,0.013-0.088c0.006,0.002,0.011,0.004,0.017,0.007c0.034,0.014,0.055,0.026,0.065,0.038
		C97.44,47.537,97.409,47.551,97.378,47.566z M97.398,47.36c0.001-0.023,0.001-0.046,0.001-0.069
		c0.022-0.001,0.044,0.005,0.064,0.018c-0.008,0.021-0.017,0.042-0.024,0.063C97.422,47.37,97.408,47.366,97.398,47.36z
		 M97.518,47.125v0.001v0.007v0.048c0.001,0.054,0.001,0.107,0.001,0.157C97.478,47.275,97.475,47.187,97.518,47.125z M97.51,46.783
		c0.001,0.001,0.004,0.003,0.006,0.004c-0.003,0.024-0.005,0.047-0.006,0.07C97.498,46.848,97.493,46.824,97.51,46.783z
		 M96.917,47.363c0.102,0.022,0.146,0.228,0.02,0.226C96.915,47.52,96.893,47.451,96.917,47.363z M97.009,46.584
		c0.022,0,0.042,0.006,0.061,0.017c0,0.024,0.001,0.049,0.003,0.073c0.002,0.033,0.005,0.066,0.008,0.099
		C97.036,46.717,97.006,46.639,97.009,46.584z M96.751,47.46c-0.076-0.05-0.075-0.14-0.095-0.219
		C96.773,47.26,96.78,47.321,96.751,47.46z M98.255,38.97c-0.045,0.049-0.089,0.1-0.132,0.152c-0.014,0.019-0.026,0.038-0.039,0.056
		c0.004-0.027,0.008-0.053,0.015-0.075C98.121,39.031,98.173,38.99,98.255,38.97z M97.667,39.864
		c-0.016,0.029-0.032,0.057-0.048,0.086C97.634,39.916,97.65,39.885,97.667,39.864z M97.08,41.144
		c-0.014,0.021-0.027,0.04-0.054,0.03C97.044,41.164,97.062,41.153,97.08,41.144z M96.992,41.649
		c-0.027-0.009-0.056-0.015-0.084-0.016C96.876,41.512,97.159,41.371,96.992,41.649z M96.826,41.383
		c0.085,0.034,0.012,0.106-0.016,0.084C96.775,41.457,96.825,41.4,96.826,41.383z M96.86,41.615
		c0.085-0.003-0.028,0.143-0.071,0.199c-0.012-0.041-0.021-0.081-0.027-0.122c-0.002-0.014-0.003-0.029-0.004-0.044
		C96.797,41.637,96.849,41.607,96.86,41.615z M96.705,46.019c-0.012,0.077-0.037,0.073-0.068,0.062
		c0.004-0.016,0.008-0.031,0.011-0.047c0.005-0.009,0.011-0.018,0.016-0.027c0.027-0.053,0.047-0.106,0.062-0.158
		C96.725,45.899,96.714,45.966,96.705,46.019z M96.635,44.835c0-0.012,0.001-0.024,0.002-0.037
		C96.642,44.808,96.642,44.82,96.635,44.835z M96.599,42.22c0.031-0.019,0.064-0.035,0.1-0.048c0.005,0,0.009,0,0.014,0
		c-0.036,0.065-0.082,0.109-0.149,0.104C96.573,42.254,96.585,42.235,96.599,42.22z M96.637,46.834
		c0.01-0.007,0.018-0.015,0.026-0.022c0.013,0.017,0.011,0.049-0.02,0.098c-0.033-0.02-0.063-0.007-0.094-0.007
		C96.581,46.881,96.61,46.858,96.637,46.834z M96.672,46.976c0.039,0.063,0.004,0.135-0.037,0.185
		C96.536,47.104,96.515,46.911,96.672,46.976z M96.72,47.95c0.008,0.002,0.016,0.003,0.024,0.003
		c-0.008,0.005-0.016,0.009-0.024,0.014C96.72,47.962,96.72,47.956,96.72,47.95z"/>
	<path d="M96.306,43.515c-0.049-0.033-0.031,0.032-0.034,0.041C96.291,43.549,96.303,43.536,96.306,43.515z"/>
</g>
<g>
	<path d="M17.584,38.697c-0.016,0.017,0.023,0.041,0.032,0.032C17.631,38.712,17.592,38.688,17.584,38.697z"/>
	<path d="M35.047,62.687c-0.182-0.049-0.296-0.166-0.504-0.189c-0.03-0.18-0.022-0.397-0.094-0.536
		c-0.107-0.123-0.316-0.146-0.473-0.221c-0.123-0.097-0.285-0.155-0.441-0.22c-0.18-0.002-0.345,0.012-0.473,0.063
		c-0.309-0.058-0.725-0.034-1.009-0.031c-0.215-0.037-0.45-0.055-0.662-0.095c-1.111-0.359-1.861-1.081-2.837-1.576
		c-0.174-0.193-0.445-0.29-0.662-0.441c-0.452-0.283-1.071-0.4-1.544-0.662c-0.29-0.068-0.376-0.338-0.662-0.41
		c-0.105-0.188-0.225-0.364-0.347-0.536c-0.079-0.215-0.146-0.442-0.253-0.63c0.071-0.161,0.209-0.253,0.221-0.473
		c-0.021-0.327-0.168-0.629-0.252-0.946c-0.104-0.392-0.23-0.808-0.347-1.198c-0.195-0.652-0.389-1.455-0.662-2.081
		c-0.078-0.178-0.176-0.345-0.221-0.536c-0.16-0.176-0.281-0.391-0.41-0.599c-0.261-0.149-0.4-0.419-0.725-0.504
		c-0.266-0.133-0.506-0.292-0.851-0.347c-0.434-0.175-0.96-0.192-1.419-0.378c-0.143-0.058-0.268-0.157-0.41-0.189
		c-0.121-0.1-0.226-0.215-0.315-0.347c-0.504-0.147-0.719-0.583-0.945-1.009c0.001-0.462-0.078-0.945,0-1.387
		c0.257-0.384,0.477-0.806,0.63-1.292c0.006-0.005,0.015-0.009,0.025-0.011c0.048,0.093,0.104,0.177,0.161,0.258
		c0.001,0.005,0.002,0.009,0.002,0.015c0.005,0.002,0.009,0.004,0.013,0.007c0.084,0.118,0.168,0.233,0.224,0.369
		c-0.029-0.128-0.084-0.248-0.142-0.365c0.003-0.088-0.01-0.191-0.013-0.283c0.033-0.007,0.06-0.022,0.076-0.052
		c0.001,0,0.002-0.001,0.003-0.001c0.004,0.017,0.008,0.034,0.013,0.05c0.004,0.024,0.009,0.049,0.014,0.074
		c0.024,0.107,0.06,0.216,0.127,0.307c0.067,0.091,0.168,0.15,0.272,0.171c-0.1-0.038-0.182-0.109-0.227-0.199
		c-0.045-0.09-0.061-0.191-0.066-0.293c-0.001-0.069-0.001-0.143-0.002-0.218c0.013-0.025,0.024-0.052,0.034-0.08
		c0.041,0.183,0.046,0.389,0.061,0.579c0.013-0.147,0.033-0.293,0.038-0.443c0.008,0.068-0.003,0.107,0.011,0.154
		c0.049-0.013,0.046-0.079,0.075-0.112c0.005-0.015,0.03-0.01,0.047-0.012c0.051,0.099,0.129,0.181,0.24,0.2
		c-0.171-0.065-0.216-0.251-0.219-0.412c0-0.011,0-0.022,0-0.033c0.006-0.027,0.013-0.054,0.02-0.08
		c-0.014-0.066,0.002-0.084,0-0.162c0.001-0.074-0.021-0.139-0.041-0.201c-0.001-0.009-0.003-0.019-0.005-0.027
		c0.068,0.152,0.175,0.288,0.308,0.38c-0.114-0.113-0.19-0.253-0.229-0.402c0.001,0,0.003,0.001,0.005,0.001
		c0.001-0.006,0.002-0.012,0.003-0.018c0.068,0.143,0.171,0.268,0.296,0.356c-0.126-0.125-0.207-0.283-0.241-0.451
		c-0.019-0.082-0.03-0.167-0.041-0.252c0.013-0.025,0.026-0.051,0.042-0.074c0.008-0.036,0.015-0.074,0.021-0.113
		c0.071,0.081,0.15,0.152,0.232,0.217c-0.083-0.092-0.162-0.191-0.22-0.297c0.021-0.146,0.031-0.303,0.022-0.452
		c0.019,0.04,0.038,0.081,0.057,0.121c0.135,0.29,0.33,0.615,0.651,0.715c-0.242-0.126-0.364-0.36-0.447-0.605
		c0.002-0.009,0.007-0.016,0.016-0.018c0.078,0.087,0.17,0.158,0.282,0.2c-0.083-0.049-0.148-0.111-0.201-0.183
		c-0.012-0.047-0.044-0.074-0.063-0.113c0.082,0.097,0.18,0.176,0.301,0.221c-0.111-0.066-0.191-0.157-0.252-0.261
		c-0.015-0.042-0.036-0.079-0.059-0.114c-0.053-0.121-0.088-0.252-0.12-0.378c-0.078-0.303-0.143-0.582-0.214-0.89
		c-0.001-0.002-0.001-0.005-0.002-0.008c0.086,0.078,0.173,0.155,0.261,0.23c-0.102-0.123-0.201-0.248-0.299-0.373
		c-0.006-0.02-0.012-0.041-0.018-0.06c0.139,0.133,0.317,0.224,0.504,0.222c-0.248-0.041-0.428-0.228-0.527-0.436
		c0.02,0.004,0.039,0.009,0.054,0.018c0.003,0.002,0.007,0.005,0.01,0.007c0.006,0.006,0.011,0.013,0.014,0.023
		c0.006,0,0.012,0,0.017,0c0.226,0.164,0.463,0.3,0.693,0.45c-0.283-0.26-0.591-0.506-0.818-0.797
		c-0.019-0.024-0.036-0.048-0.052-0.073c0.078,0.024,0.137,0.102,0.223,0.121c-0.007-0.017-0.01-0.03-0.008-0.039
		c0.057,0.077,0.105,0.166,0.17,0.24c-0.045-0.073-0.074-0.152-0.111-0.23c0.049,0.028,0.098,0.056,0.145,0.085
		c0.186,0.104,0.334,0.339,0.576,0.382c-0.181-0.066-0.271-0.223-0.395-0.366c0.085,0.042,0.176,0.068,0.271,0.067
		c-0.186-0.03-0.324-0.157-0.445-0.289c-0.103-0.115-0.216-0.222-0.321-0.331c0.065,0.006,0.133,0.024,0.194,0.016
		c0.484,0.308,0.955,0.623,1.357,1.04c-0.184-0.271-0.4-0.518-0.632-0.751c0.167,0.11,0.354,0.189,0.544,0.228
		c-0.48-0.178-0.757-0.599-1.025-1.011c-0.005-0.008-0.011-0.016-0.016-0.024c0.02,0.011,0.04,0.022,0.058,0.037
		c0.061,0.002,0.109,0.082,0.162,0.05c-0.048-0.026-0.083-0.065-0.124-0.098c0.303,0.133,0.609,0.265,0.921,0.374
		c-0.576-0.317-1.097-0.708-1.667-1.054c0.058,0.021,0.116,0.043,0.173,0.07c0.234,0.111,0.481,0.235,0.723,0.351
		c0.244,0.112,0.5,0.235,0.771,0.247c-0.213-0.046-0.399-0.158-0.578-0.279c-0.003-0.008-0.007-0.015-0.012-0.021
		c0.15,0.059,0.305,0.104,0.465,0.111c-0.222-0.048-0.414-0.167-0.599-0.292c0,0,0-0.001,0-0.001
		c0.126,0.014,0.252,0.009,0.374-0.016c-0.215,0.009-0.426-0.049-0.609-0.146c-0.04-0.029-0.08-0.057-0.12-0.086
		c-0.002-0.002-0.004-0.004-0.006-0.006c-0.001,0-0.002,0-0.003,0c-0.053-0.039-0.107-0.077-0.161-0.116
		c-0.007-0.007-0.014-0.013-0.021-0.02c-0.029-0.029-0.054-0.06-0.075-0.092c0.011-0.003,0.022-0.007,0.035-0.009
		c0.001-0.008,0.005-0.014,0.01-0.018c0.028,0,0.056-0.001,0.084-0.002c0.134-0.012,0.286-0.036,0.379-0.14
		c-0.108,0.086-0.25,0.082-0.378,0.072c-0.018-0.002-0.037-0.004-0.055-0.007c-0.059-0.017-0.119-0.033-0.188-0.04
		c-0.005-0.001-0.011-0.003-0.016-0.004c-0.016-0.029-0.008-0.081-0.036-0.097c-0.055-0.003-0.097-0.02-0.162-0.012
		c-0.003-0.01-0.01-0.015-0.025-0.013c-0.002-0.002-0.004-0.003-0.006-0.004c0.225,0.043,0.456,0.04,0.667-0.043
		c-0.344,0.071-0.676-0.05-0.959-0.224c0.028-0.005,0.06-0.008,0.086-0.015c0.016-0.034,0.062-0.038,0.112-0.037
		c0.001-0.001,0.002-0.003,0.004-0.004c0.36-0.035,0.749-0.031,1.093-0.184c-0.211,0.054-0.419,0.053-0.63,0.038
		c0.031-0.004,0.063-0.008,0.094-0.01c-0.094-0.008-0.189-0.009-0.284-0.006c-0.184-0.017-0.371-0.037-0.564-0.031
		c-0.015-0.006-0.021-0.02-0.011-0.053c0.128-0.059,0.245-0.128,0.374-0.187c0.071-0.015,0.141-0.05,0.212-0.075
		c0.061-0.021,0.133-0.031,0.182-0.07c0.074-0.032,0.146-0.07,0.211-0.118c-0.279,0.139-0.584,0.118-0.896,0.189
		c0.021-0.01,0.05-0.012,0.054-0.04c0.049-0.014,0.098-0.029,0.146-0.046c0.086-0.035,0.185-0.067,0.24-0.146
		c-0.066,0.067-0.165,0.081-0.253,0.1c-0.091,0.017-0.183,0.025-0.275,0.031c-0.184,0.011-0.371,0.008-0.548-0.014
		c-0.061-0.008-0.134-0.022-0.165-0.04c0.068-0.082,0.154-0.147,0.232-0.219c0.002-0.001,0.002-0.002,0.004-0.003
		c0.005-0.003,0.01-0.006,0.015-0.009c0.043-0.025,0.096-0.042,0.119-0.088c0,0,0,0,0,0c0.008-0.008,0.017-0.016,0.025-0.024
		c-0.261,0.176-0.57,0.178-0.873,0.291c0.129-0.089,0.267-0.174,0.375-0.291c-0.026,0.02-0.053,0.039-0.081,0.056
		c0.002-0.005-0.001-0.008-0.019-0.007c-0.102,0.039-0.181,0.101-0.274,0.149c-0.012,0.007-0.023,0.015-0.035,0.022
		c-0.075,0.035-0.15,0.072-0.222,0.118c-0.001,0-0.003-0.001-0.004-0.002c0.113-0.169,0.19-0.375,0.287-0.561
		c-0.028,0.012-0.05,0.03-0.07,0.052c0.002-0.004,0.005-0.008,0.007-0.012c-0.006,0.008-0.012,0.016-0.017,0.024
		c-0.008,0.01-0.016,0.02-0.022,0.031c-0.066,0.089-0.134,0.177-0.206,0.26c-0.012-0.002-0.024-0.003-0.041,0.007
		c-0.025,0.043-0.064,0.072-0.08,0.124c-0.017,0.017-0.035,0.031-0.052,0.047c-0.002,0-0.004-0.001-0.006-0.001
		c-0.078-0.061-0.112,0.031-0.157-0.063c-0.081,0.004-0.123,0.046-0.126,0.126c0.086,0.004,0.163,0.006,0.094-0.063
		c0.064,0.017,0.077,0.084,0.055,0.125c-0.015,0.011-0.03,0.021-0.045,0.031c-0.02,0.001-0.044-0.006-0.073-0.031
		c-0.008-0.082-0.054,0.043-0.126,0c-0.018-0.056-0.088-0.004-0.032,0c-0.027,0.147,0.082-0.043,0.095,0.063
		c-0.1,0.085-0.173,0.06-0.188-0.029c0.024-0.04,0.046-0.079,0.068-0.115c0.002-0.004,0.005-0.009,0.007-0.013
		c0.055,0.003,0.08-0.035,0.075-0.072c0.037-0.033,0.075-0.064,0.116-0.093c0.089-0.155,0.238-0.252,0.361-0.374
		c0.103-0.074,0.198-0.154,0.278-0.251c0.026-0.022,0.052-0.045,0.078-0.068c0.056-0.018,0.089-0.059,0.118-0.104
		c-0.003,0-0.007,0-0.01,0c0.059-0.062,0.113-0.127,0.16-0.198c-0.095,0.101-0.202,0.182-0.316,0.254
		c-0.117,0.024-0.172,0.111-0.282,0.143c-0.024,0.004-0.025-0.017-0.038-0.025c-0.059,0.036-0.103,0.087-0.146,0.139
		c-0.008,0.004-0.017,0.009-0.026,0.014c0.183-0.184,0.373-0.381,0.471-0.625c-0.162,0.261-0.414,0.421-0.66,0.601
		c-0.128,0.097-0.231,0.184-0.362,0.258c-0.126,0.078-0.26,0.152-0.392,0.248c-0.003,0.002-0.007,0.005-0.01,0.008
		c0.134-0.254,0.297-0.497,0.474-0.731c0.005-0.003,0.011-0.007,0.016-0.011c0.005-0.011,0.011-0.021,0.017-0.031
		c0.095-0.124,0.194-0.246,0.295-0.366c-0.054,0.045-0.107,0.092-0.16,0.138c0-0.005,0-0.01-0.002-0.015
		c0.026-0.02,0.063-0.029,0.063-0.075c-0.063-0.013-0.052,0.048-0.075,0.075c-0.011,0.008-0.021,0.016-0.031,0.024
		c0.047-0.123,0.072-0.252,0.056-0.384c-0.016,0.301-0.221,0.524-0.42,0.726c-0.096,0.099-0.2,0.195-0.298,0.303
		c0.133-0.423,0.35-0.848,0.432-1.301c0.035-0.071,0.062-0.146,0.063-0.227c-0.038,0.204-0.218,0.312-0.311,0.512
		c-0.001,0.003-0.002,0.005-0.003,0.008c-0.019-0.03,0.002-0.092-0.005-0.116c0.022-0.096,0.033-0.193,0.021-0.292
		c-0.014,0.249-0.156,0.451-0.277,0.664c-0.013,0.026-0.027,0.052-0.04,0.078c0.021-0.113,0.041-0.227,0.058-0.34
		c0.009-0.033,0.014-0.065,0.013-0.097c0.006-0.053,0.012-0.106,0.017-0.159c-0.031,0.118-0.066,0.233-0.105,0.347
		c-0.004,0.005-0.008,0.011-0.013,0.016c0,0.006,0.001,0.011,0.001,0.017c-0.013,0.038-0.026,0.075-0.04,0.112
		c-0.004,0.006-0.008,0.013-0.012,0.02c0,0.004,0,0.008,0,0.012c-0.042,0.117-0.087,0.233-0.132,0.35
		c-0.057,0.147-0.104,0.292-0.167,0.426c-0.03,0.067-0.063,0.135-0.095,0.204c-0.005-0.118-0.025-0.231-0.038-0.338
		c-0.028-0.235-0.055-0.476-0.117-0.706c0.012,0.122,0.013,0.244,0.011,0.365c-0.003-0.001-0.007-0.001-0.011-0.001
		c-0.01,0.035-0.002,0.079,0.007,0.125c-0.003,0.074-0.007,0.148-0.01,0.222c-0.006,0.117-0.005,0.228-0.019,0.335
		c-0.038-0.077-0.076-0.153-0.115-0.229c-0.076-0.267-0.107-0.56-0.175-0.837c0.007,0.097,0.009,0.194,0.011,0.291
		c-0.003-0.002-0.007-0.004-0.011-0.006c0.001,0.052,0.005,0.101,0.012,0.147c0,0.033,0.001,0.066,0.002,0.099
		c-0.167-0.316-0.337-0.627-0.487-0.95c0.019,0.104,0.041,0.207,0.063,0.31c0,0.003,0,0.006-0.001,0.009
		c0.002,0.003,0.003,0.007,0.005,0.011c0.001,0.007,0.003,0.014,0.004,0.02c-0.055-0.108-0.108-0.217-0.159-0.327
		c0.064,0.341,0.148,0.681,0.23,1.019c-0.05-0.104-0.102-0.208-0.155-0.31c0.078,0.242,0.147,0.485,0.208,0.729
		c-0.137-0.219-0.288-0.418-0.408-0.642c0.065,0.262,0.173,0.517,0.25,0.768c-0.114-0.193-0.234-0.377-0.325-0.581
		c0.05,0.194,0.127,0.381,0.2,0.567c0,0.006,0,0.011,0,0.017c0.005,0.012,0.012,0.022,0.018,0.033
		c0.024,0.062,0.046,0.123,0.066,0.184c-0.02,0.005-0.04,0.011-0.061,0.02c-0.178-0.152-0.341-0.293-0.439-0.497
		c-0.118-0.222-0.178-0.482-0.246-0.734c0.024,0.256,0.038,0.517,0.121,0.773c0.002,0.007,0.002,0.015,0.004,0.022
		c-0.042,0.02-0.053-0.053-0.075-0.012c0.025,0.058,0.129,0.104,0.087,0.187c-0.015-0.006-0.029-0.014-0.042-0.021
		c-0.148-0.11-0.303-0.204-0.456-0.301c0.035,0.031,0.07,0.062,0.104,0.093c-0.009,0-0.019,0.001-0.03,0.005
		c0.037,0.057,0.107,0.081,0.165,0.117c0.024,0.022,0.047,0.044,0.07,0.066c0.001,0.001,0.002,0.002,0.002,0.003
		c0.001,0,0.002,0.001,0.003,0.002c0.046,0.044,0.09,0.089,0.132,0.136c-0.024-0.009-0.047-0.018-0.07-0.026
		c-0.146-0.049-0.284-0.11-0.43-0.169c-0.287-0.117-0.575-0.237-0.868-0.34c0.173,0.096,0.341,0.197,0.51,0.301
		c-0.292-0.137-0.583-0.271-0.871-0.413c0.217,0.157,0.438,0.31,0.658,0.462c-0.013,0-0.024,0.003-0.034,0.008
		c-0.232-0.087-0.463-0.188-0.699-0.271c0.208,0.116,0.407,0.245,0.615,0.367c0.007,0.01,0.015,0.019,0.021,0.03
		c0.055-0.001,0.078,0.03,0.1,0.062c0.032-0.006,0.042,0.01,0.059,0.019c-0.015,0-0.029,0-0.044,0c-0.001,0-0.002,0-0.002-0.001
		c-0.005-0.005-0.009-0.011-0.013-0.018c-0.06,0.015-0.099-0.047-0.138-0.031c-0.19-0.065-0.379-0.141-0.572-0.204
		c0.136,0.071,0.268,0.149,0.401,0.225c-0.274-0.036-0.557-0.09-0.837-0.066c0.366,0.03,0.691,0.186,1.059,0.272
		c0.044,0.011,0.09,0.02,0.136,0.027c0.002,0.002,0.003,0.003,0.005,0.004c-0.356-0.076-0.722-0.096-1.075-0.063
		c0.421,0.032,0.826,0.137,1.199,0.311c0.093,0.042,0.188,0.089,0.276,0.136c0.042,0.022,0.084,0.044,0.126,0.066
		c-0.039,0.03-0.077,0.061-0.114,0.092c-0.199-0.081-0.399-0.16-0.602-0.231c0.087,0.048,0.173,0.098,0.258,0.148
		c0.08,0.057,0.156,0.119,0.231,0.181c-0.012,0.011-0.025,0.022-0.038,0.033c-0.105-0.032-0.211-0.065-0.317-0.107
		c-0.312-0.11-0.64-0.198-0.968-0.217c0.322,0.074,0.617,0.211,0.902,0.369c0.068,0.041,0.139,0.079,0.212,0.117
		c-0.004,0.003-0.008,0.007-0.011,0.011c-0.182-0.061-0.359-0.095-0.533-0.146c-0.238-0.065-0.478-0.118-0.719-0.163
		c0.144,0.053,0.287,0.109,0.428,0.169c-0.038-0.01-0.077-0.015-0.117-0.009c0.032-0.001,0.036,0.025,0.037,0.056
		c-0.206-0.048-0.416-0.068-0.623-0.066c0.159,0.025,0.314,0.064,0.462,0.116c0.012,0.01,0.03,0.015,0.049,0.017
		c0.103,0.039,0.203,0.085,0.299,0.138c0.117,0.068,0.238,0.131,0.354,0.196c-0.266-0.036-0.508-0.023-0.756-0.043
		c-0.257-0.017-0.523-0.043-0.781-0.012c0.185,0.009,0.363,0.046,0.542,0.089c-0.154,0.008-0.304,0.036-0.442,0.089
		c0.297-0.004,0.563,0.083,0.807,0.214c-0.02,0.011-0.04,0.021-0.06,0.032c0.024-0.008,0.049-0.016,0.073-0.024
		c0.034,0.018,0.067,0.037,0.101,0.057c-0.047,0.02-0.093,0.042-0.137,0.066c0.056-0.02,0.112-0.036,0.168-0.047
		c0.052,0.032,0.104,0.066,0.155,0.101c-0.217,0.091-0.424,0.181-0.648,0.235c-0.274,0.073-0.562,0.127-0.835,0.222
		c0.155-0.026,0.309-0.039,0.465-0.05c0.029,0.014,0.059,0.006,0.088-0.006c0.067-0.004,0.135-0.009,0.203-0.014
		c0.002,0.001,0.005,0.002,0.008,0.003c-0.021,0.005-0.042,0.011-0.062,0.019c-0.202,0.06-0.387,0.147-0.578,0.223
		c0.113-0.024,0.225-0.052,0.337-0.076c0,0.012,0,0.024,0,0.037c0.201-0.019,0.408-0.032,0.61-0.05
		c0.031,0.015,0.083,0.009,0.127,0.011c-0.064,0.033-0.13,0.061-0.197,0.077c-0.143,0.033-0.307,0.024-0.454,0.076
		c0.154-0.026,0.303,0.01,0.464,0.001c0.016-0.001,0.031-0.002,0.046-0.004c-0.001,0.016,0,0.034,0,0.051
		c-0.042,0.021-0.067,0.057-0.112,0.075c-0.011,0.026-0.02,0.056-0.038,0.075c-0.014,0.007-0.026,0.017-0.036,0.029
		c-0.2,0.136-0.405,0.25-0.662,0.271c0.229,0.019,0.443-0.044,0.649-0.13c0.146-0.053,0.296-0.09,0.448-0.128
		c-0.001,0.023-0.011,0.04-0.022,0.054c-0.069,0.049-0.136,0.1-0.201,0.152c-0.229,0.19-0.446,0.404-0.587,0.664
		c0.073-0.093,0.156-0.176,0.245-0.251c-0.001,0.008,0,0.016,0.004,0.025c0.072-0.054,0.135-0.116,0.199-0.177
		c0.073-0.049,0.147-0.095,0.222-0.139c0.051-0.029,0.103-0.056,0.155-0.083c0.003,0,0.006,0,0.009,0c0-0.001,0-0.003,0-0.004
		c0.018-0.009,0.036-0.018,0.055-0.027c-0.003,0.011-0.007,0.021-0.009,0.033c0.004,0.02,0.005,0.037,0.005,0.053
		c-0.238,0.285-0.397,0.604-0.561,0.919c0.157-0.209,0.32-0.424,0.498-0.612c0.002,0.006,0.005,0.012,0.007,0.017
		c-0.008,0.011-0.018,0.021-0.026,0.032c-0.04,0.028-0.074,0.06-0.104,0.092c-0.253,0.293-0.361,0.63-0.525,0.944
		c0.17-0.227,0.321-0.484,0.508-0.683c-0.071,0.107-0.138,0.215-0.208,0.322c0.029-0.031,0.058-0.063,0.087-0.094
		c-0.079,0.108-0.145,0.224-0.199,0.343c0.134-0.198,0.3-0.37,0.493-0.498c0.003-0.001,0.005-0.003,0.007-0.005
		c-0.004,0.012-0.009,0.024-0.013,0.037c-0.11,0.294-0.2,0.593-0.33,0.871c-0.022,0.036-0.045,0.071-0.07,0.104
		c0,0.023-0.014,0.053-0.023,0.077c-0.058,0.104-0.124,0.204-0.202,0.299c0.147-0.128,0.271-0.278,0.381-0.439
		c-0.042,0.097-0.075,0.195-0.112,0.291c-0.019,0.037-0.036,0.076-0.049,0.118c-0.011,0.023-0.022,0.045-0.034,0.068
		c0.01-0.013,0.019-0.026,0.029-0.04c0.063-0.005,0.086-0.076,0.117-0.119c-0.112,0.321-0.098,0.648-0.309,0.906
		c0.071-0.061,0.125-0.132,0.172-0.21c0.001,0.003,0.005,0.006,0.015,0.009c0.038-0.016,0.058-0.051,0.112-0.05
		c0.008,0.062-0.01,0.097-0.023,0.137c-0.004,0.009-0.009,0.018-0.014,0.027c0.003-0.003,0.005-0.007,0.008-0.011
		c-0.013,0.023-0.027,0.046-0.043,0.069c-0.074,0.123-0.165,0.235-0.276,0.328c0.205-0.131,0.334-0.355,0.475-0.542
		c-0.008,0.043-0.036,0.068-0.038,0.117c-0.002,0.039,0.039,0.036,0.024,0.087c-0.004,0.011-0.008,0.021-0.013,0.033
		c-0.087,0.19-0.116,0.409-0.286,0.542c0.115-0.074,0.178-0.192,0.233-0.312c0.001,0.008,0.001,0.016,0.003,0.023
		c0.06,0.006,0.048-0.06,0.087-0.075c0.007,0.004,0.013,0.007,0.018,0.009c-0.066,0.167-0.118,0.339-0.13,0.517
		c0.052-0.21,0.155-0.397,0.272-0.575h0.002c0-0.001,0-0.001,0-0.002c0.028-0.042,0.056-0.083,0.085-0.124
		c-0.037,0.136-0.064,0.273-0.11,0.402c0.049-0.091,0.091-0.188,0.134-0.284c-0.015,0.099-0.026,0.197-0.034,0.296
		c0.017-0.104,0.037-0.207,0.062-0.309c0.006-0.003,0.01-0.007,0.014-0.012c0.045,0.099,0.093,0.195,0.145,0.288
		c-0.005,0.06-0.014,0.119-0.022,0.168c0.05-0.005,0.045-0.065,0.061-0.103c0.005,0.009,0.011,0.018,0.016,0.027
		c0,0.01,0.001,0.02,0.001,0.03c0.001,0.206-0.054,0.417-0.116,0.622c0.081-0.162,0.156-0.329,0.2-0.51
		c0.008,0.013,0.018,0.023,0.026,0.036c-0.017,0.087-0.034,0.174-0.052,0.261c0.004,0,0.008-0.001,0.012-0.002
		c-0.019,0.107-0.036,0.213-0.074,0.315c0.078-0.137,0.12-0.296,0.179-0.438c0.008-0.006,0.016-0.012,0.023-0.017
		c0.014,0.018,0.026,0.037,0.04,0.054c-0.005,0.093-0.012,0.185-0.031,0.277c0.028-0.073,0.048-0.15,0.067-0.228
		c0.002,0.001,0.002,0.003,0.004,0.005c0.012,0.015,0.024,0.03,0.037,0.045c0,0.08,0,0.16-0.008,0.239
		c0.012-0.071,0.02-0.144,0.026-0.217c0.03,0.036,0.061,0.073,0.095,0.106c-0.02,0.102-0.042,0.205-0.046,0.31
		c0.013-0.099,0.04-0.194,0.068-0.29c0.043,0.038,0.089,0.07,0.144,0.09c-0.001,0.074,0.054,0.093,0.031,0.189
		c0.046-0.045,0.1-0.024,0.095,0.063c0.11-0.063-0.002,0.014,0.063,0.032c0.1,0.048,0.105,0.189,0.158,0.284
		c0.061-0.003-0.049-0.118,0.031-0.158c0.112-0.049,0.019,0.107,0.095,0.095c-0.004,0.057,0.039,0.066,0.032,0.126
		c0.028-0.02,0.056-0.038,0.063,0c0.031-0.001,0.024-0.039,0.031-0.063c0.095,0.02-0.03,0.067,0,0.126
		c0.03-0.019,0.117-0.073,0.095,0.032c0.029-0.023,0.048-0.058,0.063-0.095c0.159,0.154,0.262,0.448,0.315,0.725
		c0.055,0.284,0.061,0.61,0.063,0.946c-0.104,0.242-0.355,0.338-0.536,0.504c-0.248,0.087-0.437,0.235-0.756,0.252
		c-0.342,0.215-0.746,0.368-1.166,0.504c-0.449,0.098-0.958,0.135-1.45,0.189c-0.314,0.138-0.631,0.274-0.977,0.378
		c-0.174,0.204-0.404,0.353-0.599,0.536c-0.097,0.271-0.245,0.491-0.378,0.725c-0.031,0.313-0.163,0.613-0.221,0.946
		c-0.059,0.335-0.078,0.708-0.095,1.072c-0.009,0.2-0.009,0.396,0,0.599c0.045,1.012,0.149,2.059,0.221,2.995
		c0.047,0.153,0.202,0.198,0.284,0.315c0.023,0.475-0.14,0.954-0.189,1.45c-0.013,0.129,0.011,0.275,0,0.41
		c-0.021,0.241-0.089,0.576-0.063,0.914c0.008,0.108,0.01,0.216,0.031,0.315c0.015,0.066,0.081,0.144,0.095,0.221
		c0.03,0.162-0.003,0.346,0.063,0.504c0.268,0.288,0.375,0.739,0.567,1.103c0.175,0.371,0.422,0.67,0.599,1.04
		c0.378,0.725,0.791,1.416,1.198,2.112c0.019,0.354-0.123,0.549-0.126,0.883c0.09,0.119,0.208,0.211,0.378,0.252
		c-0.061,0.339-0.092,0.706-0.126,1.071c0.019,0.114-0.096,0.093-0.094,0.19c-0.021,1.156-0.247,2.107-0.221,3.309
		c-0.162,0.133-0.372,0.217-0.536,0.347c-0.02,0.314,0.028,0.562,0.095,0.788c0.083,0.022,0.066,0.144,0.158,0.158
		c0.059,0.046,0.164,0.046,0.189,0.126c-0.018,0.641,0.102,1.381,0.158,2.049c-0.004,0.416,0.018,0.858-0.032,1.229
		c0.042,0.421,0.112,0.813,0.189,1.198c0.052,1.062,0.014,2.222,0.063,3.341c0.014,0.324,0.079,0.646,0.094,0.978
		c0.022,0.477,0,0.979,0,1.45c0,1.341,0.01,2.536-0.378,3.53c-0.004,0.228-0.052,0.41-0.032,0.662
		c0.139,0.481,0.213,1.026,0.347,1.514c-0.047,0.173-0.078,0.362-0.094,0.567c-0.178,0.379-0.318,0.796-0.441,1.229
		c0.077,0.427,0.166,0.843,0.41,1.103c0.733,0.178,1.472-0.075,2.112-0.188c-0.004,0.196-0.139,0.261-0.189,0.41
		c-0.125,0.61-0.366,1.104-0.567,1.639c-0.066,0.187-0.271,0.232-0.316,0.441c-0.017,0.195,0.064,0.293,0.064,0.473
		c0.143,0.067,0.229,0.191,0.378,0.252c0.925,0.039,2.055,0.076,2.932-0.031c0.061-0.097,0.173-0.143,0.252-0.221
		c0.023-0.188,0.08-0.34,0.063-0.567c-0.06-0.467-0.252-0.966-0.284-1.513c-0.027-0.475,0.047-0.972-0.095-1.355
		c0.297-0.146,0.681-0.202,0.883-0.441c0.07-0.263,0.021-0.642,0-0.915c-0.032-0.136-0.1-0.236-0.126-0.378
		c-0.083-0.815,0.021-1.647-0.032-2.427c-0.047-0.706-0.292-1.33-0.41-1.892c0.046-1.026,0.002-2.036,0-3.026
		c-0.001-0.715,0.141-1.415,0.189-2.081c-0.041-0.442-0.083-0.884-0.063-1.387c0.124-0.885,0.3-1.868,0.347-2.9
		c0.017-0.365-0.016-0.743,0-1.104c0.028-0.63,0.12-1.222,0.189-1.797c0.071,0.322,0.093,0.662,0.126,1.01
		c0.031,0.327,0.079,0.663,0.095,1.008c0.031,0.678-0.031,1.387,0,2.081c0.039,0.894,0.128,1.774,0.189,2.585
		c0.023,0.646-0.089,1.229-0.063,1.828c0.022,0.5,0.134,1.003,0.158,1.514c0.013,0.299-0.021,0.604,0.031,0.883
		c-0.046,0.844-0.133,1.825-0.063,2.679c0.081,0.984-0.157,1.858-0.347,2.617c-0.104,1.136-0.233,2.246-0.347,3.372
		c-0.149,0.275-0.128,0.567-0.158,1.009c-0.007,0.103-0.036,0.199-0.032,0.284c0.029,0.575,0.423,0.929,0.757,1.166
		c-0.164,0.131-0.269,0.32-0.347,0.536c-0.025,0.382,0.03,0.684,0.094,0.977c0.208,0.159,0.401,0.334,0.662,0.441
		c0.113,0.055,0.157,0.179,0.252,0.252c0.313,0.171,0.876,0.091,1.293,0.157c0.218-0.044,0.425-0.1,0.662-0.126
		c0.145-0.181,0.397-0.254,0.631-0.347c0.067-0.122,0.219-0.159,0.284-0.283c0.045-0.218,0.076-0.449,0.126-0.662
		c0.468-0.063,0.922-0.146,1.292-0.315c0.344-0.359,0.553-0.855,0.599-1.513c-0.149-0.44-0.275-0.902-0.504-1.262
		c-0.016-0.257-0.1-0.446-0.094-0.725c0.092-0.611,0.243-1.166,0.378-1.733c0.024-0.267-0.042-0.441-0.031-0.694
		c-0.38-1.104-0.347-2.399-0.347-3.909c0-0.597-0.026-1.227,0-1.828c0.019-0.428,0.075-0.841,0.094-1.261
		c0.014-0.299-0.013-0.592,0-0.883c0.029-0.648,0.001-1.269,0-1.891c-0.001-0.883,0.102-1.794,0.158-2.617
		c-0.149-1.014-0.086-2.184,0.063-3.152c-0.008-1.048-0.015-1.921,0.032-2.932c-0.017-0.12-0.066-0.207-0.095-0.315
		c-0.056-1.625-0.17-3.192-0.536-4.508c0.075-0.103,0.24-0.116,0.284-0.252c-0.094-0.4-0.235-0.753-0.315-1.166
		c-0.072-0.422-0.187-0.801-0.252-1.229c-0.224-0.765-0.31-1.665-0.41-2.554c-0.051-1.322-0.142-2.792,0.189-3.877
		c0.115,0.369,0.328,0.639,0.378,1.072c0.094,0.117,0.198,0.223,0.252,0.378c0.268,0.111,0.666,0.203,0.977,0.095
		c0.094,0.085,0.131,0.227,0.158,0.378c0.153,0.361,0.262,0.768,0.41,1.135c0.092,0.086,0.152,0.206,0.221,0.315
		c0.084,0.084,0.167,0.169,0.221,0.284c0.263,0.168,0.436,0.426,0.757,0.536c0.245,0.175,0.547,0.293,0.851,0.41
		c0.595,0.245,1.164,0.516,1.797,0.725c0.625,0.216,1.323,0.357,1.86,0.662c0.303,0.12,0.59,0.245,0.882,0.378
		c0.284,0.13,0.54,0.312,0.82,0.441c0.457,0.594,1.05,1.052,1.828,1.324c0.389-0.039,0.744,0.077,1.072,0
		c0.092-0.065,0.167-0.148,0.19-0.284c0.102,0.037,0.343,0.06,0.441,0c0.15-0.107,0.161-0.401,0-0.504
		c0.075,0.073,0.332,0.094,0.441,0.031c0.017-0.045,0.049-0.077,0.094-0.095c0.077-0.171,0.017-0.394-0.094-0.473
		c0.129,0.053,0.309,0.141,0.473,0.064C35.73,63.17,35.225,62.904,35.047,62.687z M18.141,38.551
		c-0.003,0.01-0.009,0.02-0.017,0.026c0,0-0.001,0.001-0.002,0.001C18.128,38.57,18.134,38.561,18.141,38.551z M17.2,37.095
		c-0.004,0.011-0.009,0.021-0.013,0.032c0-0.002,0-0.004,0-0.006C17.191,37.112,17.196,37.104,17.2,37.095z M17.117,37.258
		c0.003-0.008,0.007-0.016,0.01-0.024c0.007-0.006,0.014-0.013,0.021-0.021c-0.011,0.023-0.022,0.046-0.034,0.07
		C17.117,37.276,17.117,37.268,17.117,37.258z M13.68,38.777v-0.003c0.002,0.001,0.004,0.003,0.005,0.004
		C13.684,38.778,13.682,38.777,13.68,38.777z M12.455,44.583c0,0.007-0.015,0.014-0.023,0.021c0.008-0.014,0.016-0.027,0.023-0.041
		C12.455,44.569,12.455,44.576,12.455,44.583z M18.839,38.796l-0.003,0.007c0-0.001-0.001-0.001-0.001-0.002
		C18.836,38.8,18.837,38.798,18.839,38.796z M17.647,38.918c0.008-0.008,0.036,0.009,0.033,0.024
		c-0.004,0.002-0.009,0.005-0.013,0.007C17.653,38.946,17.634,38.93,17.647,38.918z M17.363,38.981c0,0.011-0.01,0.021-0.02,0.019
		c0.006-0.008,0.011-0.017,0.017-0.025C17.361,38.977,17.362,38.978,17.363,38.981z M17.506,38.756
		c0.004-0.004,0.008-0.007,0.012-0.011C17.516,38.754,17.512,38.757,17.506,38.756z M15.579,38.93
		c0.012,0.054,0.023,0.108,0.035,0.162c-0.001,0.001-0.003,0.002-0.003,0.003c-0.006-0.025-0.012-0.053-0.015-0.082
		c-0.022-0.018-0.036-0.045-0.048-0.074L15.579,38.93z M15.296,38.903c0.006,0.017,0.012,0.035,0.017,0.053
		c-0.009-0.008-0.018-0.016-0.027-0.024c-0.006-0.005-0.012-0.011-0.019-0.016C15.277,38.912,15.287,38.907,15.296,38.903z
		 M13.984,39.934c-0.002-0.001-0.004-0.002-0.006-0.004C13.981,39.932,13.982,39.933,13.984,39.934z M14.455,39.587
		c-0.013,0.024-0.042,0.031-0.087,0.024c-0.011-0.029-0.001-0.051,0.019-0.066C14.41,39.559,14.433,39.573,14.455,39.587z
		 M12.875,42.132c0.001,0.012-0.007,0.021-0.028,0.027C12.856,42.15,12.866,42.142,12.875,42.132z M14.116,46.105
		c-0.009,0.009-0.048-0.015-0.031-0.031C14.093,46.065,14.132,46.089,14.116,46.105z M14.179,46.358
		c-0.008,0.009-0.048-0.016-0.031-0.032C14.156,46.317,14.195,46.341,14.179,46.358z M14.494,46.546
		c-0.001-0.034,0.015-0.08,0.032-0.032C14.527,46.548,14.511,46.595,14.494,46.546z"/>
</g>
<g>
	<path d="M56.832,56.175c-0.142-0.115-0.181-0.333-0.415-0.356c-0.145,0.053-0.257,0.138-0.475,0.119
		c-0.099,0.143-0.159,0.28-0.356,0.178c-0.115-0.143-0.333-0.181-0.356-0.416c0.253-0.431,1.069,0.063,1.127-0.534
		c-0.026-0.271-0.206-0.387-0.534-0.356c-0.336,0.02-0.458-0.174-0.771-0.178c-0.831,0-1.415,0.247-2.017,0.475
		c-2.012-0.717-3.685-1.773-5.576-2.61c-0.711-0.218-1.256-0.602-2.135-0.652c-0.388-0.459-0.502-1.051-0.712-1.602
		c-0.208-0.545-0.437-1.108-0.653-1.661c-0.432-1.106-0.935-2.237-1.068-3.56c0.071-0.305,0.398-0.353,0.475-0.652
		c0.18-0.216,0.376-0.415,0.416-0.771c-0.093-0.5-0.37-0.817-0.475-1.305c-0.215-0.22-0.408-0.462-0.534-0.771
		c-0.288-0.146-0.502-0.368-0.711-0.593c-0.429-0.105-0.748-0.321-1.187-0.415c-0.15-0.003-0.294,0-0.436,0.007
		c-0.103-0.133-0.189-0.282-0.278-0.436c0.017-0.022,0.034-0.045,0.052-0.069c0.58,0.411,1.26,0.665,1.949,0.749
		c-0.687-0.143-1.333-0.454-1.854-0.898c0.009-0.017,0.018-0.035,0.026-0.053c0.061-0.118,0.066-0.291,0.048-0.401
		c-0.033-0.267-0.145-0.482-0.248-0.69c-0.09-0.158-0.165-0.314-0.234-0.471c0.02,0.022,0.039,0.044,0.06,0.066
		c0.193,0.208,0.452,0.382,0.739,0.396c-0.489-0.085-0.757-0.499-0.984-0.909c-0.043-0.104-0.087-0.209-0.137-0.318
		c-0.123-0.266-0.288-0.538-0.511-0.765c0-0.014,0-0.029,0-0.043c0.574,0.735,1.128,1.512,1.896,2.064
		c-0.462-0.396-0.823-0.868-1.158-1.364c0.044,0.045,0.087,0.09,0.133,0.134c-0.099-0.112-0.189-0.231-0.277-0.351
		c-0.2-0.305-0.395-0.615-0.602-0.919c-0.002-0.054-0.003-0.107-0.005-0.16c0.226,0.215,0.461,0.409,0.659,0.637
		c0.243,0.321,0.515,0.665,0.869,0.882c-0.338-0.252-0.561-0.591-0.788-0.947c-0.225-0.308-0.506-0.564-0.736-0.846
		c0.08,0.069,0.162,0.136,0.245,0.2c0.089,0.135,0.185,0.266,0.29,0.391c0.604,0.753,1.572,1.104,2.482,1.085
		c-0.866-0.058-1.707-0.439-2.216-1.111c0.405,0.225,0.844,0.379,1.309,0.438c-0.563-0.121-1.065-0.378-1.502-0.721
		c-0.393-0.627-0.604-1.354-0.8-2.087c0.205,0.33,0.447,0.639,0.756,0.882c0.427,0.346,0.994,0.479,1.517,0.403
		c-0.53,0.03-1.059-0.148-1.431-0.505c-0.329-0.306-0.56-0.698-0.748-1.107c0.445,0.339,0.944,0.602,1.476,0.763
		c-0.619-0.247-1.165-0.627-1.619-1.094c-0.181-0.438-0.35-0.882-0.54-1.327c-0.216-0.487-0.437-0.997-0.847-1.432
		c-0.085-0.087-0.172-0.163-0.258-0.234c-0.089-0.121-0.182-0.242-0.28-0.366c-0.331-0.394-0.773-0.731-1.279-0.92
		c-0.747-0.283-1.533-0.269-2.242-0.171l0.002,0.012c-0.756,0.023-1.406,0.432-1.837,0.921c-0.16,0.177-0.298,0.37-0.415,0.575
		c-0.021,0.037-0.041,0.074-0.06,0.111c-0.197,0.2-0.378,0.418-0.566,0.627c-0.057,0.122-0.111,0.248-0.164,0.374
		c-0.191,0.164-0.383,0.328-0.573,0.493c-0.592,0.453-0.973,1.143-1.679,1.406c0.733-0.205,1.188-0.876,1.795-1.261
		c0.097-0.071,0.196-0.142,0.293-0.212c-0.152,0.432-0.273,0.897-0.344,1.41c-0.126,0.263-0.256,0.524-0.395,0.786
		c-0.405,0.422-0.917,0.744-1.525,0.771c0.491,0.021,0.949-0.16,1.348-0.441c-0.184,0.363-0.321,0.777-0.358,1.184
		c-0.044,0.354-0.023,0.705-0.077,1.023c-0.002,0.004-0.004,0.007-0.006,0.011c-0.191,0.292-0.428,0.651-0.819,0.653
		c0.325,0.027,0.575-0.207,0.774-0.447c-0.112,0.355-0.471,0.61-0.872,0.592c-0.407,0.004-0.813-0.132-1.22-0.21
		c0.401,0.111,0.786,0.282,1.217,0.316c0.307,0.044,0.64-0.079,0.866-0.311c-0.233,0.739-0.75,1.395-1.498,1.701
		c0.821-0.251,1.461-0.967,1.744-1.785c0.067-0.175,0.126-0.352,0.18-0.529c-0.109,0.48-0.242,0.956-0.403,1.422
		c-0.135,0.222-0.283,0.439-0.443,0.641c-0.235,0.282-0.512,0.59-0.901,0.631c0.395-0.007,0.711-0.3,0.974-0.567
		c0.065-0.069,0.127-0.139,0.188-0.21c-0.03,0.074-0.06,0.148-0.091,0.222c-0.013,0.03-0.026,0.06-0.04,0.09
		c-0.308,0.443-0.622,0.881-0.943,1.315c0.24-0.272,0.476-0.546,0.71-0.823c-0.308,0.601-0.693,1.167-1.237,1.584
		c0.764-0.489,1.289-1.276,1.715-2.068c0.024-0.047,0.049-0.095,0.073-0.142c-0.019,0.048-0.038,0.095-0.056,0.143
		c-0.321,0.791-0.565,1.619-1.087,2.302c0.58-0.638,0.901-1.461,1.285-2.215c0.037-0.074,0.073-0.148,0.11-0.223
		c0.007,0.086,0.016,0.173,0.027,0.26c-0.071,0.338-0.132,0.673-0.243,0.994c-0.111,0.394-0.397,0.704-0.594,1.067
		c0.223-0.341,0.539-0.63,0.69-1.028c0.088-0.198,0.156-0.403,0.219-0.607c0.005,0.027,0.011,0.053,0.017,0.08
		c-0.155,0.581-0.376,1.155-0.568,1.741c-0.06,0.182-0.106,0.365-0.157,0.544c-0.412,0.077-0.796,0.199-1.133,0.24
		c-0.302,0.172-0.559,0.391-0.89,0.534c-0.624,0.839-1.279,1.647-1.187,3.204c0.073,0.164,0.173,0.301,0.178,0.534
		c0.175,0.26,0.404,0.466,0.534,0.771c-0.306,0.584-0.417,1.363-0.712,1.958c-0.173,0.717-0.579,1.201-0.593,2.077
		c-0.593,0.396-1.264,0.714-1.839,1.127c-0.611,0.377-1.143,0.834-1.72,1.246c-1.035,0.962-2.258,1.737-3.619,2.373
		c-0.646,0.007-1.337-0.032-1.898,0.059c-0.313,0.201-0.732,0.296-1.068,0.475c0.042,0.295,0.045,0.628,0.297,0.712
		c0.213,0.171,0.161-0.43,0.534-0.297c-0.313,0.379-0.789,0.596-1.127,0.95c-0.231,0.302-0.713,0.355-0.712,0.89
		c0.082,0.214,0.311,0.104,0.415,0.178c-0.172,0.001-0.14,0.335-0.059,0.416c0.077,0.082,0.258,0.059,0.415,0.059
		c-0.015,0.193,0.071,0.286,0.237,0.296c0.299,0.042,0.408-0.106,0.593-0.178c0.175,0.062,0.174,0.3,0.475,0.237
		c0.234-0.121,0.6-0.112,0.89-0.178c0.836-0.509,1.613-1.076,2.136-1.898c0.425-0.149,0.735-0.412,1.068-0.652
		c0.369-0.205,0.792-0.355,1.127-0.593c0.822-0.345,1.634-0.7,2.432-1.068c0.793-0.374,1.501-0.832,2.195-1.305
		c0.809-0.357,1.312-1.021,1.72-1.779c0.198-1.028,0.445-2.007,0.831-2.848c0.04-0.158,0.093-0.302,0.178-0.415
		c0.073-0.145,0.05-0.385,0.237-0.416c0.398,1.618,0.909,3.125,0.83,5.22c-0.11,0.918-0.423,1.633-0.652,2.432
		c-0.151,0.2-0.425,0.543-0.356,0.771c0.08,0.295,0.563,0.188,0.653,0.474c-0.341,0.747-0.843,1.333-1.127,2.136
		c-0.35,1.173-0.594,2.451-0.534,4.034c-0.026,0.191-0.114,0.321-0.119,0.534c0.036,0.143,0.085,0.271,0.059,0.475
		c0.547,1.885,0.929,3.936,1.305,5.991c0.322,2.525,0.694,5.001,0.712,7.83c-0.102,0.688-0.119,1.442-0.178,2.195
		c-0.057,0.724-0.256,1.496,0,2.136c0.248,0.266,0.767,0.261,1.067,0.475c0.371,2.338,0.896,4.521,1.009,7.118
		c0.085,0.271,0.145,0.567,0.178,0.89c0,0.158,0,0.316,0,0.475c-0.054,0.302-0.208,0.504-0.237,0.83
		c0.007,0.33,0.126,0.547,0.119,0.891c-0.28,0.887-0.849,1.483-0.712,2.788c0.144,0.093,0.262,0.212,0.356,0.355
		c1.216,0.254,2.728,0.302,4.093,0.237c0.094-0.144,0.212-0.263,0.356-0.355c0.01-0.089-0.022-0.22,0.059-0.237
		c-0.008-0.146-0.009-0.286,0.06-0.356c-0.095-0.082-0.063-0.293-0.178-0.356c0.013-0.118-0.251-0.254-0.119-0.297
		c0.915,0.21,1.582-0.201,2.195-0.475c0.234-0.319,0.576-0.53,0.771-0.89c-0.019-0.217,0.009-0.386,0.059-0.534
		c0.031-0.836-0.119-1.584-0.237-2.136c-0.172-0.802-0.236-1.628-0.415-2.491c-0.147-0.387-0.415-0.653-0.475-1.127
		c0.436-1.462,0.902-2.895,1.483-4.212c0.443-0.189,0.798-0.468,1.127-0.77c-0.01-0.149,0.091-0.187,0.178-0.237
		c0.385-1.039,0.456-2.393,0.652-3.619c-0.344-5.243,0.41-9.861,0.534-14.83c-0.149-0.483-0.277-0.988-0.416-1.483
		c-0.001-1.541-0.299-2.785-0.534-4.093c0.328-0.028,0.57-0.142,0.771-0.297c-0.289-0.789-0.343-1.727-0.415-2.728
		c-0.046-0.637-0.15-1.316-0.178-1.958c-0.072-1.642,0.383-3.262,0.593-4.627c0.077-0.18-0.014-0.528,0.178-0.593
		c0.334,0.911,0.816,1.675,1.127,2.61c0.183,0.45,0.289,0.977,0.416,1.483c0.071,0.561,0.376,0.888,0.534,1.364
		c0.203,0.153,0.381,0.331,0.534,0.534c0.654,0.275,1.344,0.515,1.958,0.83c0.771,0.179,1.572,0.326,2.314,0.534
		c1.314,0.235,2.632,0.553,3.678,0.949c0.241,0.091,0.544,0.237,0.83,0.237c0.697,0.371,1.379,0.756,2.135,1.068
		c0.286,0.149,0.777,0.093,1.068,0.237c0.132-0.085,0.286-0.149,0.534-0.119c0.084-0.113,0.226-0.17,0.237-0.356
		c0.176-0.021,0.293-0.103,0.356-0.237c0.188-0.227,0.562-0.268,0.593-0.652C57.165,56.356,56.947,56.317,56.832,56.175z
		 M14.418,58.429c-0.099-0.027,0.14-0.21,0.296-0.178C14.709,58.403,14.493,58.347,14.418,58.429z M39.411,39.378
		c0.083,0.105,0.168,0.21,0.251,0.315c0.066,0.141,0.136,0.28,0.21,0.41c-0.083,0.141-0.149,0.312-0.14,0.486
		c-0.043,0.006-0.086,0.012-0.129,0.019C39.566,40.201,39.527,39.782,39.411,39.378z M39.912,40.564
		c0.007-0.085,0.036-0.167,0.081-0.246c0.042,0.075,0.086,0.15,0.131,0.224C40.053,40.549,39.982,40.556,39.912,40.564z
		 M29.389,40.474c0.014,0.073,0.024,0.146,0.031,0.219c-0.097,0.346-0.19,0.695-0.266,1.051c-0.039,0.001-0.078,0.002-0.118,0.003
		C29.189,41.332,29.293,40.902,29.389,40.474z M28.752,41.335c0.119-0.281,0.246-0.561,0.37-0.843
		c-0.058,0.411-0.123,0.818-0.232,1.215c-0.005,0.017-0.01,0.034-0.015,0.05c-0.015,0.001-0.029,0.001-0.043,0.002
		c-0.086,0.007-0.171,0.019-0.256,0.031C28.634,41.637,28.689,41.483,28.752,41.335z M33.697,92.063
		c-0.031-0.03,0.043-0.075,0.059-0.059C33.787,92.035,33.713,92.08,33.697,92.063z M34.706,86.903
		c-0.05,0.325-0.246,0.505-0.297,0.83c-0.031,0.309,0.079,0.476,0.119,0.712c-0.412,0.953-0.463,2.266-0.711,3.382
		c-0.161-0.255-0.108-0.724-0.237-1.009c0.023-0.832-0.05-1.582,0-2.314c0.094-1.385,0.521-2.63,0.593-4.034
		c0.021-0.406-0.064-0.818,0.059-1.245c0.124,0.024,0.157-0.041,0.237-0.06c0.05-0.011,0.056,0.023,0.059,0.06
		C34.747,84.329,34.826,85.621,34.706,86.903z"/>
</g>
<g>
	<path d="M72.393,53.779c-0.201-0.971-0.462-1.882-0.561-2.956c-0.039-0.312,0.066-0.477,0.051-0.765
		c-0.086-0.78-0.338-1.395-0.611-1.988c-0.45-2.115-0.881-4.25-1.223-6.473c-0.201-0.275-0.287-0.665-0.357-1.07
		c-0.148-0.327-0.244-0.707-0.255-1.172c-0.243-0.623-0.45-1.283-0.765-1.835c-0.021-0.606-0.166-1.091-0.255-1.631
		c-0.028-0.25,0.402-0.04,0.357-0.306c-0.025-0.335-0.211-0.607-0.255-0.969c-0.145-1.186,0.162-2.591,0.051-3.975
		c-0.069-1.291-0.19-2.528-0.306-3.772c-0.274-0.831-0.663-1.546-1.121-2.192c-0.324-0.304-0.726-0.532-1.02-0.866
		c-0.71-0.327-1.358-0.714-2.141-0.968c-0.561-0.322-0.997-0.771-1.58-1.07c0.282-0.109,0.551-0.231,0.662-0.51
		c0.051-0.205,0.063-0.447,0.052-0.713c0.237-0.543,0.555-1.008,0.662-1.682c-0.047-0.217,0.337-0.003,0.306-0.204
		c0.149-0.003,0.189-0.117,0.255-0.204c0.047-0.302-0.087-0.422-0.101-0.662c0.163-0.355,0.256-0.906,0.306-1.224
		c-0.029-0.233,0.227-0.181,0.255-0.357c0.123-0.064,0.103-0.271,0.204-0.357c-0.029-0.245-0.042-0.484-0.045-0.72
		c0.015,0.008,0.027,0.019,0.043,0.026c-0.017-0.017-0.029-0.034-0.043-0.051c-0.001-0.089-0.001-0.177,0.001-0.265
		c0.121-0.004,0.241-0.021,0.354-0.051c-0.122-0.011-0.239-0.032-0.352-0.062c0-0.015,0.001-0.029,0.001-0.043
		c0.053,0,0.104-0.005,0.155-0.02c-0.054-0.004-0.104-0.016-0.153-0.032c0.004-0.099,0.008-0.197,0.013-0.296
		c0.082,0.031,0.167,0.048,0.255,0.045c-0.096-0.03-0.176-0.08-0.249-0.14c0.002-0.029,0.003-0.057,0.005-0.086
		c0.117,0.069,0.245,0.119,0.38,0.119c-0.151-0.056-0.266-0.159-0.37-0.271c0.003-0.04,0.005-0.081,0.008-0.121
		c0.02,0.022,0.041,0.04,0.067,0.052c0.151,0.141,0.308,0.285,0.483,0.407c-0.163-0.225-0.295-0.459-0.462-0.686
		c-0.021-0.03-0.044-0.059-0.067-0.088c0.001-0.013,0.002-0.025,0.003-0.038c0.18,0.166,0.379,0.317,0.621,0.381
		c-0.229-0.156-0.389-0.375-0.565-0.587c0.016-0.003,0.034-0.004,0.056-0.004c0.112,0.085,0.242,0.128,0.372,0.148
		c0.316,0.037,0.58-0.082,0.836-0.182c-0.276,0.011-0.561,0.045-0.789-0.032c-0.11-0.037-0.217-0.102-0.279-0.18
		c-0.041-0.049-0.076-0.112-0.113-0.182c0.029,0.018,0.06,0.036,0.09,0.053c0.189,0.105,0.419,0.186,0.649,0.162
		c0.229-0.022,0.419-0.144,0.564-0.283c-0.185,0.085-0.384,0.131-0.561,0.098c-0.176-0.03-0.327-0.125-0.471-0.243
		c-0.028-0.028-0.06-0.055-0.092-0.08c-0.113-0.102-0.224-0.214-0.342-0.327c0.004-0.001,0.007-0.001,0.011-0.001
		c0.061,0.03,0.12,0.058,0.18,0.084c0.039,0.037,0.072,0.079,0.093,0.112c0.049,0.006,0.098,0.014,0.146,0.024
		c0.1,0.061,0.203,0.124,0.312,0.178c0.179,0.089,0.401,0.182,0.601,0.111c-0.204-0.002-0.354-0.138-0.498-0.262
		c-0.084-0.074-0.161-0.153-0.244-0.233c0.09,0.031,0.184,0.051,0.281,0.056c0.234,0.017,0.459-0.098,0.582-0.263
		c-0.177,0.114-0.381,0.138-0.552,0.078c-0.173-0.057-0.323-0.173-0.457-0.304c-0.075-0.07-0.11-0.128-0.206-0.22
		c-0.068-0.07-0.136-0.142-0.206-0.217c-0.139-0.147-0.305-0.317-0.53-0.427c-0.102-0.05-0.208-0.086-0.313-0.11
		c0.319-0.172,0.618-0.354,0.993-0.372c-0.325-0.102-0.678-0.007-0.981,0.127c-0.102-0.02-0.221-0.011-0.304-0.063
		c0.07-0.012,0.14-0.025,0.209-0.043c0.221-0.058,0.453-0.162,0.588-0.348c-0.123,0.076-0.253,0.12-0.386,0.146
		c0.001-0.007,0.001-0.014,0.001-0.022c-0.345,0.05-0.641,0.067-0.98-0.005c-0.496-0.106,0.305-0.25,0.372-0.291
		c-0.016-0.024-0.035-0.037-0.057-0.043c0.033-0.019,0.064-0.04,0.093-0.064c0.123-0.099,0.211-0.224,0.28-0.353
		c-0.216,0.204-0.474,0.335-0.728,0.288c-0.244-0.029-0.555-0.166-0.898-0.064c-0.062-0.036-0.123-0.07-0.187-0.103
		c0.029-0.011,0.059-0.022,0.088-0.033c0.102-0.017,0.223,0.002,0.296,0.015c-0.004-0.027-0.051-0.056-0.087-0.088
		c0.211-0.074,0.426-0.156,0.615-0.29c-0.187,0.054-0.379,0.077-0.573,0.103c0.001-0.002,0.002-0.003,0.002-0.004
		c0.18-0.095,0.355-0.24,0.41-0.436c-0.117,0.152-0.269,0.225-0.435,0.277c-0.062-0.005-0.063-0.065-0.055-0.142
		c-0.091,0.033-0.212,0.067-0.341,0.093c0.211-0.142,0.387-0.335,0.459-0.569c-0.221,0.288-0.547,0.406-0.871,0.471
		c-0.128,0.025-0.258,0.043-0.39,0.057c-0.111-0.046-0.229-0.084-0.355-0.058c-0.127,0.027-0.25,0.064-0.381,0.068
		c-0.078,0.016-0.062-0.088-0.134-0.083c-0.27,0.033-0.515,0.106-0.784,0.059c-0.197-0.034-0.476-0.085-0.649,0.035
		c-0.087,0.061-0.17,0.099-0.281,0.096c-0.094,0.002-0.062,0.096-0.117,0.133c-0.128,0.011-0.254,0.021-0.373-0.009
		c-0.006-0.003-0.012-0.007-0.017-0.011c-0.002,0.001-0.004,0.002-0.007,0.004c-0.052-0.017-0.103-0.042-0.152-0.079
		c0.028,0.041,0.065,0.08,0.107,0.111c-0.052,0.051-0.075,0.125-0.12,0.184c-0.09,0.015-0.155,0.071-0.223,0.127
		c-0.035,0.029-0.07,0.053-0.109,0.067c-0.066-0.006-0.133-0.025-0.199-0.063c0.025,0.027,0.053,0.052,0.085,0.073
		c0.002,0.072-0.026,0.133-0.074,0.185c-0.079,0.085-0.152,0.15-0.165,0.249c-0.137,0.04-0.268,0.102-0.386,0.183
		c-0.35,0.245-0.549,0.623-0.656,0.975c-0.014,0.041-0.028,0.082-0.043,0.123c-0.101,0.076-0.061,0.119-0.139,0.237
		c-0.042,0.063-0.056,0.088-0.05,0.107c-0.095,0.087-0.272,0.026-0.405-0.081c0.052,0.076,0.112,0.15,0.202,0.201
		c0.076,0.05,0.193,0.053,0.285,0.012c-0.105,0.202-0.147,0.379-0.213,0.587c-0.107,0.336-0.028,0.729-0.085,1.089
		c-0.072,0.461,0.135,0.839,0.139,1.289c0.002,0.255,0.01,0.465,0.08,0.719c0.047,0.173,0.121,0.37,0.135,0.558
		c-0.02,0.104-0.042,0.207-0.067,0.306c0.002,0.055,0.001,0.108,0.002,0.162c-0.051,0.279-0.087,0.577-0.04,0.859
		c-0.037,0.357-0.097,0.692-0.166,1.018c-0.215,0.516-0.467,0.994-0.764,1.427c-0.103-0.018-0.16,0.01-0.153,0.102
		c-0.84,0.06-1.532,0.268-2.293,0.407c-0.483-0.044-1.017-0.036-1.478-0.102c-0.547,0.06-0.97,0.132-1.427,0.255
		c-0.295,0.079-0.469,0.141-0.713,0.254c-0.271,0.127-0.521,0.244-0.765,0.408c-0.307,0.206-0.584,0.45-0.867,0.663
		c-0.222,0.287-0.428,0.591-0.662,0.866c-0.302,0.684-0.607,1.364-0.867,2.089c-0.033,0.253-0.049,0.506-0.102,0.765
		c-0.044,0.217-0.15,0.437-0.204,0.663c-0.322,1.364-0.398,2.898-0.917,4.128c-0.111,0.279-0.39,0.392-0.458,0.713
		c-0.058,0.295,0.105,0.371,0.153,0.561c-0.165,0.362-0.25,0.804-0.408,1.172c-0.21,0.405-0.638,0.63-0.918,1.019
		c-0.33,0.299-0.609,0.648-0.917,0.969c-0.321,0.324-0.545,0.746-0.917,1.019c-0.226,0.403-0.463,0.794-0.713,1.172
		c-0.425,0.849-1.036,1.512-1.478,2.344c-0.213,0.109-0.268,0.377-0.458,0.51c-0.079,0.227-0.291,0.321-0.357,0.561
		c-0.213,0.109-0.268,0.377-0.458,0.51c-0.08,0.227-0.291,0.321-0.357,0.561c-0.796,0.664-1.391,1.532-1.988,2.396
		c-0.604,0.856-1.436,1.486-2.089,2.293c-0.141,0.352-0.289,0.697-0.357,1.121c0.044,0.363,0.262,0.554,0.458,0.765
		c0.174,0.217,0.277,0.505,0.459,0.713c0.311-0.005,0.416,0.195,0.713,0.204c0.39,0,0.396-0.385,0.713-0.459
		c0.113-0.26,0.467-0.281,0.459-0.662c0.056-0.102,0.129,0.207,0.255,0.204c0.051,0.119,0.175,0.164,0.356,0.153
		c0.046-0.152,0.144-0.319,0.153-0.51c0.01-0.22-0.066-0.372-0.102-0.561c0.148-0.378,0.283-0.77,0.561-1.019
		c0.113-0.634,0.506-0.989,0.561-1.682c0.459-0.814,1.286-1.263,1.937-1.886c0.711-0.563,1.435-1.114,2.192-1.631
		c1.41-1.122,2.926-2.137,4.026-3.568c0.334-0.787,0.795-1.447,1.223-2.14c0.182-0.378,0.479-0.642,0.764-0.917
		c0.061-0.21,0.261-0.283,0.357-0.459c0.158-0.113,0.147-0.396,0.408-0.408c0.042,0.451-0.109,1.147-0.204,1.631
		c-0.148,0.85-0.282,1.648-0.357,2.497c-0.077,0.876-0.04,1.78-0.102,2.701c-0.086,1.288-0.646,2.259-0.866,3.466
		c-0.036,0.194-0.068,0.405-0.102,0.612c-0.068,0.409-0.206,0.778,0,1.223c-0.221,0.765-0.077,1.894-0.408,2.548
		c0.035,0.731-0.021,1.373-0.153,1.937c-0.017,0.408,0.091,0.69,0.102,1.07c-0.034,1.427-0.595,2.327-0.764,3.619
		c-0.08,1.364-0.165,2.723-0.306,4.026c-0.079,0.279-0.168,0.545-0.255,0.816c0.002,0.321-0.033,0.678,0.102,0.866
		c-0.132,0.275-0.142,0.673-0.204,1.019c0.083,1.271-0.048,2.978,0,4.74c-0.035,0.237-0.117,0.427-0.153,0.662
		c0.06,1.504,0.027,2.44,0.051,3.721c-0.041,0.3-0.237,0.442-0.306,0.714c0.004,0.619-0.019,0.965,0,1.528
		c-0.002,0.305-0.22,0.393-0.204,0.714c0.108,0.656,0.461,1.068,0.663,1.631c0.157,0.608,0.513,1.017,0.663,1.631
		c0.227,0.215,0.444,0.439,0.663,0.663c0.058,0.23,0.044,0.533,0.102,0.765c0.297,0.399,0.615,0.777,0.917,1.172
		c0.409,0.288,0.823,0.569,1.07,1.019c0.194,0.061,0.313,0.197,0.611,0.153c-0.137,0.604-0.129,1.473-0.051,2.141
		c-0.18,1.333-0.661,2.363-0.765,3.771c0.091,0.674,0.244,1.285,0.459,1.835c0.826,0.921,2.569,1.643,4.179,1.02
		c0.484-0.428,0.516-1.249,0.561-1.988c0.052-0.87-0.02-1.86-0.102-2.649c-0.06-0.829-0.219-1.813-0.102-2.65
		c-0.195-1.096-0.111-2.471-0.561-3.313c0.174-0.335,0.452-0.566,0.663-0.866c0.112-0.108,0.401-0.04,0.458-0.203
		c0.221-0.001,0.202-0.241,0.357-0.307c0.043-0.263,0.066-0.545,0.051-0.866c0.015-0.234,0.159-0.426,0.153-0.662
		c-0.007-0.27-0.15-0.426-0.204-0.663c0.093-0.654,0.039-1.284-0.357-1.58c-0.081-0.19-0.317-0.227-0.356-0.458
		c0-0.323,0-0.646,0-0.969c-0.038-0.251-0.107-0.471-0.153-0.714c0-1.817,0-3.635,0-5.453c0.195-0.604,0.473-1.123,0.611-1.784
		c0.302-0.496,0.379-1.218,0.713-1.682c0.056-0.284,0.022-0.429,0.051-0.662c0.074,0.112,0.404-0.03,0.408,0.152
		c-0.03,0.218,0.037,0.338,0.051,0.51c0.01,0.384-0.089,0.658-0.051,1.07c-0.047,0.275-0.259,0.387-0.306,0.663
		c-0.02,0.495,0.034,0.917,0.153,1.274c0,1.683,0,3.364,0,5.046c0.016,0.239,0.109,0.401,0.153,0.611
		c0.094,1.301-0.24,2.173-0.153,3.466c-0.372,1.329-0.311,2.805-0.306,4.536c-0.089,0.319-0.148,0.667-0.254,0.969
		c-0.051,0.815-0.175,1.558-0.306,2.293c-0.159,0.707-0.313,1.42-0.356,2.243c-0.016,0.222-0.134,0.342-0.153,0.561
		c0.001,0.661-0.045,1.369,0.153,1.835c0.213,0.533,0.614,0.88,0.968,1.274c-0.135,0.102-0.049,0.427-0.255,0.459
		c-0.079,0.143-0.154,0.287-0.255,0.407c-0.033,0.203,0.267,0.073,0.255,0.256c-0.229,1.23-0.217,2.704-0.458,3.924
		c-0.022,0.216-0.216,0.26-0.255,0.459c0.03,0.513,0.004,1.083,0.153,1.478c0.338,0.171,0.895,0.125,1.223,0.306
		c0.256,0.001,0.373-0.137,0.611-0.152c0.261-0.04,0.371,0.071,0.612,0.051c0.201,0.014,0.354-0.019,0.408-0.152
		c0.173,0.014,0.292,0.08,0.51,0.051c0.201,0.064,0.123-0.148,0.255-0.153c0.106-0.111,0.146,0.025,0.306,0
		c0.274,0.019,0.319-0.19,0.561-0.204c0.481-0.028,0.792-0.227,1.07-0.459c0.192-0.843-0.379-1.257-0.611-1.834
		c0.026-0.263,0.141-0.436,0.102-0.765c-0.137-0.746-0.091-1.676-0.255-2.396c0.339-0.086,0.779-0.071,1.07-0.204
		c0.19-0.03,0.25-0.191,0.459-0.204c0.035-0.134,0.232-0.107,0.255-0.255c0.074-0.096,0.075-0.265,0.204-0.306
		c0.615,0.071,0.968-0.119,1.172-0.458c0.105-0.285,0.004-0.551,0-0.867c-0.014-0.218,0.147-0.26,0.255-0.356
		c0.031-0.155,0.108-0.266,0.152-0.407c-0.004-0.072-0.008-0.145,0.052-0.153c0.028-0.487-0.031-0.887-0.153-1.223
		c0.014-1.243-0.084-2.6,0.204-3.568c0.135-0.374,0.435-0.584,0.611-0.917c0.227-0.282,0.411-0.608,0.611-0.918
		c0.19-0.777,0.067-1.869,0.103-2.803c0.077-0.28,0.213-0.501,0.306-0.765c0-0.815,0-1.631,0-2.446
		c0.099-0.31,0.28-0.535,0.407-0.815c0.094-0.638,0.036-1.426,0.052-2.141c0.022-0.261-0.14-0.336-0.153-0.561
		c0.035-0.46-0.031-0.818-0.153-1.121c0-2.039,0-4.077,0-6.116c-0.028-0.26,0.078-0.655-0.101-0.765
		c0.081-0.225,0.241-0.369,0.306-0.611c-0.079-0.332,0.166-0.598,0.153-0.866c-0.017-0.336-0.226-0.448-0.358-0.714
		c0-0.306,0-0.611,0-0.917c-0.16-0.485-0.276-1.015-0.458-1.479c-0.063-0.98,0.107-2.201-0.051-3.16
		c-0.108-1.013-0.375-1.868-0.307-3.058c0.072-0.353,0.107-0.742,0.153-1.121c-0.159-0.549-0.065-1.145-0.051-1.784
		c-0.242-0.71-0.084-1.819-0.255-2.6c0.18-0.457,0.057-1.053,0-1.63c-0.035-0.357-0.053-0.69-0.153-0.969
		c-0.096-0.634-0.365-1.095-0.458-1.733c-0.304-1.244-0.207-2.602-0.153-4.026c0.059-0.332,0.095-0.687,0.153-1.019
		c0.264-0.738,0.575-1.429,0.917-2.09c0.238,0.595,0.32,1.344,0.408,2.09c0.232,0.141,0.487-0.073,0.764-0.051
		c0.146,0.108,0.184,0.326,0.204,0.561c0.244,0.486,0.284,1.176,0.51,1.682c0.26,0.708,0.428,1.509,0.408,2.498
		c0.163,0.924,0.639,1.536,0.917,2.344c0.36,0.727,0.741,1.434,1.07,2.191c0.268,0.276,0.352,0.736,0.611,1.02
		c0.13,0.414,0.38,0.707,0.51,1.121c0.258,0.287,0.339,0.749,0.561,1.07c0.092,0.434,0.377,0.677,0.408,1.172
		c-0.06,0.416-0.457,0.495-0.56,0.866c-0.122,1.175,0.63,1.477,0.815,2.345c-0.067,0.205-0.176,0.369-0.357,0.458
		c0.05,0.185-0.229,0.043-0.203,0.204c-0.12,0.017-0.05,0.223-0.153,0.255c-0.014,0.336,0.097,0.548,0.204,0.764
		c0.03,0.275,0.082,0.53,0.255,0.663c0.154,0.172,0.501,0.047,0.662,0.102c0.242-0.047,0.426-0.152,0.611-0.255
		c0.479-0.099,0.88-0.276,1.173-0.561C72.53,54.79,72.251,54.193,72.393,53.779z M35.493,47.306c0-0.028,0.042-0.058,0.051,0
		C35.544,47.334,35.503,47.364,35.493,47.306z M63.887,10.885c-0.009-0.01-0.018-0.019-0.026-0.029
		c0.003-0.002,0.006-0.006,0.009-0.008L63.887,10.885z"/>
	<path d="M64.646,16.471c-0.026,0.027,0.037,0.066,0.052,0.051C64.724,16.496,64.66,16.458,64.646,16.471z"/>
</g>
<g>
	<path d="M102.975,52.71c-0.241-0.242-0.413-0.554-0.515-0.936c-0.188-0.061-0.26-0.239-0.421-0.328
		c-0.089-0.161-0.271-0.228-0.328-0.421c-0.147-0.103-0.237-0.262-0.327-0.421c-0.083-0.042-0.145-0.105-0.187-0.187
		c0.014-0.083-0.221-0.145-0.094-0.188c0.158,0.107,0.468,0.063,0.562,0.234c0.175,0.091,0.346,0.185,0.608,0.187h0.234
		c0.1-0.088,0.298-0.077,0.374-0.187c0.108,0.015,0.052-0.135,0.141-0.14c-0.067-0.177,0.129-0.09,0.094-0.234
		c-0.305-0.07-0.527-0.222-0.937-0.188c-0.211-0.147-0.441-0.276-0.701-0.374c-0.042-0.146-0.221-0.153-0.281-0.281
		c-0.165-0.038-0.12-0.285-0.328-0.28c-0.363-0.198-0.763-0.36-1.076-0.609C99.39,48.293,99,48.214,98.575,48.17
		c-0.351-0.203-0.564-0.515-0.795-0.842c-0.222-0.315-0.518-0.637-0.655-1.03c-0.187-0.222-0.329-0.482-0.468-0.749
		c-0.444-0.85-0.858-1.684-1.264-2.527c-0.277-0.576-0.496-1.167-0.796-1.731c-0.066-0.125-0.163-0.251-0.234-0.375
		c-0.245-0.426-0.482-0.801-0.748-1.17c-0.535-0.572-1.199-1.016-1.731-1.591c-0.453-0.725-0.648-1.578-0.936-2.434
		c-0.283-0.845-0.562-1.767-0.655-2.761c0.066-0.495,0.045-1.079,0.047-1.638c-0.131-1.226-0.493-2.181-1.029-3.042
		c-0.216-0.346-0.592-0.377-0.869-0.591c-0.244-0.188-0.415-0.178-0.709-0.245c-0.35-0.08-1.01-0.168-1.236-0.453
		c-0.374-0.471-1.213-1.004-1.818-1.145c-0.557-0.551-1.094-1.122-1.311-2.012c-0.031-0.525-0.221-1.304,0-1.778h0.889
		c0.637-0.128,1.341-0.188,1.451-0.843c-0.08-0.45-0.335-0.726-0.468-1.123c-0.185-0.361-0.355-0.737-0.562-1.076
		c0.205-0.411,0.026-1.029,0.094-1.498c-0.011-0.192-0.246-0.16-0.234-0.375c0.004-0.628,0.028-1.276-0.141-1.731
		c-0.117-0.21-0.326-0.329-0.421-0.562c-0.179-0.071-0.306-0.194-0.421-0.328c-0.227-0.038-0.318-0.212-0.516-0.281
		c-1.282-0.62-2.684-1.122-4.633-1.077c-0.121,0.066-0.293,0.082-0.421,0.141c-0.099,0.058-0.157,0.154-0.234,0.234
		c-0.065,0.068-0.165,0.134-0.233,0.234c-0.241,0.352-0.355,0.864-0.608,1.217c-0.103,0.142-0.285,0.218-0.375,0.375
		c-0.057,0.302-0.215,0.502-0.233,0.842c-0.343,0.297-0.74,0.539-1.03,0.889c-0.372,0.268-0.729,0.549-0.982,0.936
		c0.054,0.743,0.608,0.982,0.982,1.404c0.303,0.087,0.424,0.356,0.749,0.421c0.198,0.208,0.523,0.288,0.749,0.468
		c-0.031,0.313,0.091,0.471,0.094,0.749c0.191,0.557,0.506,0.992,0.749,1.497c0.228,0.536,0.19,1.338,0.795,1.498
		c0.362,0.05,0.511-0.114,0.796-0.141c0.143,0.294,0.082,0.792,0.094,1.217c-0.403,0.372-0.747,0.39-1.228,0.598
		c-0.247,0.107-0.941,0.309-1.077,0.53c-0.318,0.52-1.126,0.655-1.716,0.76c-0.589,0.106-0.883,0.236-1.38,0.564
		c-0.45,0.296-0.523,0.491-0.779,0.962c-0.445,0.82-0.73,1.725-0.794,2.67c-0.038,0.575,0.058,1.154,0.047,1.778
		c-0.275,1.596-0.751,2.992-1.17,4.446c-0.2,0.735-0.589,1.282-0.795,2.012c-0.524,1.465-0.293,3.304-0.375,5.101
		c-0.016,0.354-0.088,0.722-0.094,1.076c-0.002,0.135,0.046,0.292,0.047,0.421c0.003,0.235-0.042,0.465-0.047,0.702
		c-0.017,0.85-0.087,1.579-0.046,2.293c-0.261,1.206-0.555,2.378-0.749,3.65c0.146,0.463,0.397,0.819,0.515,1.31
		c0.116,0.071,0.152,0.223,0.234,0.328c0.055,0.147,0.157,0.247,0.187,0.421c0.196,0.178,0.332,0.417,0.515,0.608
		c-0.034,0.077,0.094,0.203,0.094,0.093c0.132,0.001-0.111,0.128,0.094,0.094c0.017,0.171,0.16,0.214,0.281,0.281
		c0.146-0.103,0.17-0.329,0.233-0.515c0.038,0.133,0.105,0.238,0.234,0.281c0.13-0.135,0.247-0.283,0.327-0.468
		c-0.063-0.436-0.317-0.681-0.515-0.983c-0.088-0.271-0.233-0.484-0.327-0.749c-0.209-0.15-0.236-0.482-0.328-0.749
		c-0.035-0.285,0.075-0.424,0.047-0.702c0.148-0.211,0.243-0.475,0.328-0.749c0.084-0.103,0.182-0.192,0.233-0.328
		c0.115-0.066,0.079-0.284,0.221-0.323c0.049-0.309,0.122-0.612,0.175-0.921c0.065-0.384-0.059-0.875-0.128-1.253
		c-0.036-0.198,0.029-0.362,0.141-0.477c0.65-2.434,1.657-4.511,2.025-7.228c-0.017-0.311,0.042-0.697-0.047-0.936
		c0.079-0.373,0.139-0.767,0.234-1.123c0.291-0.504,0.557-1.035,0.795-1.591c0.259-0.35,0.342-0.875,0.562-1.263
		c-0.038-0.132,0.066-0.122,0.047-0.234c0.075-0.034-0.01-0.229,0.141-0.187c0.448,2.088,0.915,4.324,0.749,6.879
		c-0.103,0.615-0.24,1.195-0.374,1.778c-0.176,0.542-0.226,1.209-0.422,1.731c-0.004,0.175,0.202,0.142,0.141,0.375
		c-0.124,0.188-0.156,0.467-0.281,0.655c-0.024,0.181,0.084,0.229,0.047,0.421c-0.327,0.939-0.412,1.987-0.562,3.042
		c-0.058,0.406-0.153,0.81-0.187,1.264c-0.036,0.484,0.016,0.895,0,1.31c-0.014,0.343-0.133,0.685-0.141,1.03
		c-0.015,0.607,0.136,1.247,0.233,1.872c0.29,1.84,0.693,3.694,1.218,5.194c0.649,2.189,1.568,4.109,1.777,6.739
		c0.463,1.783,1.161,3.332,1.358,5.382c-0.018,0.263-0.072,0.489-0.047,0.796c0.042,0.191,0.176,0.292,0.188,0.515
		c-0.067,0.15-0.044,0.393-0.047,0.608c-0.01,0.243,0.22,0.248,0.188,0.515c0.02,0.191-0.154,0.189-0.094,0.421
		c-0.037,0.208,0.063,0.28,0.047,0.468c0.072,0.196,0.135-0.117,0.188,0.141c0.066,0.319-0.12,0.292-0.094,0.515
		c-0.036,0.255,0.058,0.379,0.047,0.608c0.052-0.005,0.072,0.068,0.094,0c-0.003-0.05,0.021-0.118,0.046-0.047
		c-0.018,0.502,0.144,0.823,0.281,1.17c-0.168,1.454-0.207,3.037-0.374,4.493v0.327c0.065,0.134-0.146,0.256,0.047,0.234
		c0.219,0.187,0.753,0.058,1.029,0.187c-0.14,1.499,0.098,3.374-0.188,4.727c-0.118,0.241-0.248,0.47-0.327,0.749
		c-0.032,0.171-0.065,0.341-0.047,0.562c0.094,0.281,0.265,0.484,0.327,0.796c-0.005,0.846-0.17,1.705-0.188,2.667
		c-0.139,0.485-0.263,0.985-0.421,1.451c-0.005,0.059-0.006,0.112-0.005,0.164c-0.049,0.118-0.077,0.242-0.077,0.37
		c0,0.779,0.957,1.412,2.138,1.412c1.18,0,2.137-0.633,2.137-1.412c0-0.086-0.014-0.169-0.035-0.251
		c0.003-0.016,0.007-0.032,0.008-0.049c0.037-0.409-0.241-0.791-0.374-1.077c-0.186-0.298-0.261-0.706-0.375-1.076
		c-0.186-0.796-0.363-1.602-0.654-2.293c0.099-0.213,0.222-0.402,0.233-0.702c0.007-0.146-0.019-0.26-0.05-0.368
		c1.164-0.013,2.102-0.64,2.102-1.411c0-0.112-0.021-0.221-0.059-0.325c0.009-0.044,0.016-0.092,0.02-0.142
		c-0.066-0.526-0.188-0.998-0.281-1.497c-0.014-0.607-0.005-1.191,0.094-1.686c0.031-0.22-0.161-0.46-0.094-0.562
		c0.281-0.015,0.538-0.054,0.749-0.14c0.012-0.457,0.058-0.879,0.188-1.217c-0.122-0.541,0.026-1.182,0.14-1.638
		c-0.067-0.576,0.021-1.168,0.141-1.686c-0.116-0.55,0.041-1.072,0.094-1.591c0.061-0.248-0.136-0.238-0.094-0.468
		c0.044-3.684,1.02-6.437,0.982-10.202c0.592-2.378,1.625-4.606,2.247-6.927c0.08-0.298,0.156-0.563,0.233-0.842
		c0.044-0.154,0.096-0.27,0.141-0.421c0.626-2.091,0.951-4.626,0.796-7.254c-0.168-1.205-0.588-2.158-0.936-3.182
		c-0.217-1.156-0.713-2.033-1.123-2.995c-0.087-0.083,0.038-0.119,0-0.281c-0.112-0.137-0.211-0.288-0.327-0.421
		c0.134-0.006,0.086-0.195,0.094-0.328c-0.1-0.18-0.295-0.267-0.375-0.468c-0.307-0.613-0.512-1.329-0.795-1.965
		c-0.136-0.871-0.23-1.728-0.187-2.668c0.075-1.653,0.596-3.114,0.702-4.68c0.216,0.783,0.518,1.479,0.796,2.2
		c0.228,0.271,0.357,0.641,0.561,0.936c0.197,0.318,0.436,0.594,0.563,0.983c0.288,0.726,0.811,1.216,1.17,1.872
		c0.272,0.227,0.312,0.686,0.562,0.936c0.176,0.454,0.521,0.862,0.701,1.264c0.008,0.015,0.082,0.029,0.094,0.047
		c0.015,0.021-0.011,0.07,0,0.094c0.007,0.015,0.082,0.03,0.094,0.046c0.065,0.093,0.124,0.189,0.188,0.281
		c0.207,0.3,0.416,0.603,0.608,0.842c0.071,0.089,0.113,0.189,0.188,0.281c0.14,0.176,0.327,0.339,0.468,0.515
		c0.073,0.092,0.108,0.183,0.187,0.281c0.096,0.118,0.187,0.221,0.234,0.328c0.006,0.013,0.082,0.033,0.094,0.047
		c0.123,0.148,0.182,0.317,0.327,0.421c0.433,0.582,0.914,1.114,1.311,1.731c0.252,0.247,0.396,0.602,0.655,0.843
		c0.19,0.325,0.483,0.546,0.655,0.889c0.201,0.766,0.52,1.414,0.982,1.918c0.23,0.253,0.351,0.617,0.562,0.889
		c0.137,0.114,0.196,0.303,0.328,0.421c0.161,0.088,0.212,0.287,0.327,0.421c0.055,0.305,0.196,0.521,0.281,0.796
		c0.089,0.285,0.18,0.569,0.562,0.562c0.133-0.247,0.016-0.533-0.047-0.796c-0.069-0.291-0.12-0.569-0.188-0.795
		c-0.088-0.295-0.37-0.383-0.468-0.608c0.047,0,0.056,0.038,0.094,0.047c0.732,0.219,0.965,0.938,1.403,1.451
		c0.126,0.452,0.277,0.878,0.796,0.936c0.103-0.304-0.097-0.63-0.094-0.983c-0.146-0.243-0.305-0.475-0.374-0.795
		c-0.139-0.111-0.223-0.276-0.328-0.421c-0.085-0.18-0.32-0.21-0.327-0.468c0.321,0.131,0.404,0.501,0.655,0.702
		c0.155,0.344,0.349,0.649,0.515,0.982c0.02,0.323,0.121,0.565,0.234,0.796c0.203,0.031,0.261,0.207,0.515,0.187
		c0.056-0.508-0.119-0.786-0.094-1.264c-0.201-0.267-0.282-0.653-0.421-0.982c-0.195-0.226-0.383-0.46-0.563-0.702
		c-0.054-0.07-0.164-0.197,0-0.234c0.232-0.092,0.359,0.285,0.563,0.375c0.119,0.224,0.38,0.306,0.515,0.515
		c0.147,0.274,0.343,0.5,0.468,0.795c0.073,0.146,0.13,0.307,0.28,0.375c0.094,0.125,0.312,0.126,0.469,0.187
		C103.293,53.397,102.999,53.092,102.975,52.71z M79.295,75.688c-0.024-0.024,0.033-0.06,0.047-0.047
		C79.366,75.665,79.308,75.701,79.295,75.688z M79.342,76.109c-0.024-0.024,0.033-0.06,0.047-0.047
		C79.412,76.087,79.354,76.122,79.342,76.109z M79.436,76.998c-0.024-0.024,0.033-0.06,0.047-0.047
		C79.506,76.976,79.448,77.011,79.436,76.998z"/>
</g>
</svg>
